<svg width="1330" height="888" viewBox="0 0 1330 888" fill="none" xmlns="http://www.w3.org/2000/svg">
<g clip-path="url(#clip0_117_974)">
<rect width="1330" height="888" rx="24" fill="#6772E5"/>
<rect x="884.575" y="-335.225" width="1082.67" height="590.97" rx="64.5572" transform="rotate(-11.6596 884.575 -335.225)" fill="#808AF2"/>
<mask id="mask0_117_974" style="mask-type:luminance" maskUnits="userSpaceOnUse" x="1044" y="46" width="213" height="115">
<path d="M1256.15 46.8473L1044.3 46.6367L1044.22 160.788L1256.06 160.999L1256.15 46.8473Z" fill="white"/>
</mask>
<g mask="url(#mask0_117_974)">
<path d="M1069.58 97.6958C1068.78 99.6699 1067.59 101.439 1066.1 102.889C1064.64 104.311 1062.95 105.448 1061.12 106.249C1059.3 107.049 1057.38 107.549 1055.42 107.73C1053 107.948 1050.95 107.78 1049.26 107.224C1047.77 106.732 1046.29 105.82 1044.83 104.489C1044.51 104.196 1044.49 103.679 1044.78 103.348L1050.35 96.9292C1050.65 96.5931 1051.14 96.5833 1051.48 96.8669C1051.92 97.2429 1052.41 97.5634 1052.93 97.8216C1053.73 98.1355 1054.59 98.2363 1055.43 98.1155C1057.08 97.9604 1058.38 97.3358 1059.35 96.2415C1060.31 95.1473 1060.79 93.5924 1060.79 91.5765L1060.81 63.7222C1060.81 63.2993 1061.11 62.947 1061.51 62.9106L1070.05 62.1212C1070.49 62.08 1070.88 62.456 1070.88 62.9344L1070.86 90.8911C1070.89 93.2301 1070.45 95.5493 1069.58 97.6958Z" fill="white"/>
<path d="M1107.73 93.5374C1106.94 95.5348 1105.8 97.3481 1104.36 98.8761C1102.91 100.412 1101.22 101.655 1099.35 102.544C1097.45 103.455 1095.42 104.013 1093.34 104.194C1091.33 104.404 1089.3 104.222 1087.36 103.655C1085.54 103.121 1083.84 102.186 1082.38 100.911C1080.94 99.641 1079.8 98.0253 1079.05 96.1948C1078.24 94.1986 1077.84 92.0402 1077.87 89.8647L1077.89 62.1295C1077.89 61.7068 1078.2 61.3545 1078.59 61.3179L1087.13 60.5257C1087.58 60.4843 1087.96 60.8604 1087.96 61.3389L1087.94 88.6857C1087.94 90.6993 1088.42 92.2266 1089.38 93.2674C1090.34 94.3116 1091.66 94.7501 1093.35 94.5961C1094.11 94.5533 1094.86 94.3484 1095.55 93.9932C1096.24 93.638 1096.86 93.1396 1097.37 92.5269C1098.36 91.3069 1098.86 89.6891 1098.87 87.6732L1098.89 60.1897C1098.89 59.767 1099.19 59.4147 1099.59 59.3781L1108.13 58.586C1108.58 58.5446 1108.96 58.9206 1108.96 59.3991L1108.94 86.991C1108.95 89.238 1108.54 91.4652 1107.73 93.5374Z" fill="white"/>
<path d="M1142.83 91.6699C1142.02 93.468 1140.86 95.0576 1139.43 96.3297C1137.91 97.6715 1136.2 98.7362 1134.36 99.4808C1132.38 100.29 1130.31 100.793 1128.2 100.975C1124.83 101.29 1121.88 101.142 1119.37 100.532C1117.08 99.9738 1114.97 98.8133 1113.21 97.1611C1112.9 96.8704 1112.89 96.3669 1113.17 96.0425L1118.61 89.7011C1118.89 89.374 1119.37 89.3502 1119.7 89.61C1120.7 90.3783 1121.85 90.8912 1123.07 91.1038C1124.78 91.4504 1126.53 91.537 1128.27 91.3606C1132.19 91.0003 1134.15 89.5042 1134.15 86.8723C1134.15 85.7628 1133.89 84.9246 1133.35 84.3579C1132.81 83.7909 1131.87 83.4886 1130.64 83.4378L1128.23 83.2929L1125.7 83.1579C1122.05 82.918 1119.31 81.8776 1117.47 80.0366C1115.59 78.1139 1114.65 75.2626 1114.66 71.4826C1114.63 69.548 1114.97 67.6282 1115.67 65.8446C1116.37 64.0609 1117.41 62.4523 1118.72 61.1205C1121.43 58.2816 1125.07 56.6502 1129.63 56.2264C1132.62 55.9512 1135.24 56.1194 1137.48 56.731C1139.46 57.2663 1141.3 58.2643 1142.86 59.6493C1143.19 59.9358 1143.21 60.452 1142.92 60.7827L1137.84 66.6863C1137.43 67.1583 1136.74 67.171 1136.25 66.8117C1135.48 66.261 1134.61 65.8918 1133.7 65.7356C1132.25 65.5385 1130.79 65.5192 1129.34 65.6783C1127.73 65.829 1126.5 66.3544 1125.65 67.2543C1125.27 67.6281 1124.95 68.0828 1124.74 68.5906C1124.52 69.0984 1124.4 69.6486 1124.39 70.2073C1124.38 70.5765 1124.45 70.9429 1124.59 71.2811C1124.73 71.6193 1124.93 71.921 1125.19 72.1653C1125.84 72.8041 1126.78 73.1483 1128.01 73.1981L1130.25 73.2964L1132.96 73.478C1136.56 73.6802 1139.25 74.6433 1141.01 76.3673C1143.04 78.3167 1144.06 81.4276 1144.05 85.6998C1144.07 87.7633 1143.65 89.8042 1142.83 91.6699Z" fill="white"/>
<path d="M1169.09 62.5428C1168.7 62.5794 1168.4 62.9317 1168.4 63.3544L1168.37 96.1318C1168.37 96.5545 1168.07 96.9068 1167.67 96.9434L1159.13 97.7355C1158.68 97.777 1158.3 97.4008 1158.3 96.9223L1158.33 64.4315C1158.33 63.953 1157.94 63.5769 1157.5 63.6184L1149.09 64.3982C1148.64 64.4395 1148.26 64.0636 1148.26 63.5851L1148.26 55.6045C1148.26 55.1818 1148.57 54.8295 1148.96 54.7929L1177.64 52.133C1178.09 52.0915 1178.47 52.4676 1178.47 52.9461L1178.47 60.9266C1178.47 61.3493 1178.16 61.7017 1177.77 61.7382L1169.09 62.5428Z" fill="white"/>
<path d="M1075.87 154.876C1073.49 157.373 1070.42 158.798 1066.66 159.152L1049.65 160.714C1049.2 160.755 1048.82 160.379 1048.82 159.901L1048.85 117.665C1048.85 117.242 1049.15 116.89 1049.55 116.853L1065.83 115.342C1070.02 114.955 1073.24 115.804 1075.51 117.888C1077.77 119.973 1078.9 122.955 1078.9 126.834C1078.9 129.013 1078.42 130.855 1077.46 132.36C1076.62 133.719 1075.59 134.928 1074.4 135.94C1074.99 136.277 1075.55 136.645 1076.1 137.045C1076.69 137.501 1077.21 138.045 1077.65 138.659C1078.21 139.449 1078.65 140.336 1078.94 141.284C1079.31 142.49 1079.48 143.754 1079.46 145.023C1079.44 149.092 1078.25 152.377 1075.87 154.876ZM1067.95 125.869C1067.37 125.226 1066.45 124.962 1065.19 125.078L1059.61 125.597C1059.22 125.633 1058.91 125.986 1058.91 126.408L1058.91 131.921C1058.91 132.4 1059.29 132.776 1059.74 132.735L1065.18 132.229C1066.45 132.111 1067.37 131.677 1067.94 130.926C1068.51 130.195 1068.82 129.27 1068.81 128.317C1068.82 127.869 1068.75 127.421 1068.61 127.001C1068.46 126.581 1068.24 126.196 1067.95 125.869ZM1068.48 142.72C1067.89 142.033 1066.96 141.75 1065.7 141.87L1059.6 142.434C1059.2 142.471 1058.9 142.823 1058.9 143.246L1058.89 149.312C1058.89 149.791 1059.28 150.167 1059.72 150.126L1065.69 149.573C1066.96 149.455 1067.89 148.989 1068.48 148.175C1069.07 147.37 1069.39 146.372 1069.37 145.348C1069.41 144.381 1069.09 143.438 1068.48 142.72Z" fill="white"/>
<path d="M1087.22 157.242C1086.77 157.283 1086.39 156.907 1086.39 156.429L1086.42 114.177C1086.42 113.754 1086.73 113.402 1087.12 113.365L1113.45 110.925C1113.89 110.883 1114.28 111.259 1114.28 111.738L1114.27 119.715C1114.27 120.138 1113.97 120.49 1113.57 120.527L1097.19 122.049C1096.79 122.085 1096.49 122.438 1096.49 122.86L1096.48 128.556C1096.48 129.034 1096.87 129.41 1097.31 129.369L1110.84 128.114C1111.29 128.073 1111.67 128.449 1111.67 128.927L1111.67 136.908C1111.67 137.33 1111.36 137.683 1110.97 137.719L1097.17 138.999C1096.78 139.036 1096.48 139.388 1096.48 139.811L1096.47 145.877C1096.47 146.355 1096.85 146.732 1097.3 146.69L1113.42 145.196C1113.87 145.155 1114.25 145.531 1114.25 146.009L1114.24 153.99C1114.24 154.412 1113.94 154.765 1113.55 154.801L1087.22 157.242Z" fill="white"/>
<path d="M1139.82 118.092C1139.43 118.128 1139.12 118.481 1139.12 118.903L1139.1 151.681C1139.1 152.103 1138.8 152.456 1138.4 152.492L1129.86 153.284C1129.41 153.326 1129.03 152.95 1129.03 152.471L1129.05 119.98C1129.05 119.502 1128.67 119.126 1128.22 119.167L1119.81 119.947C1119.37 119.988 1118.98 119.612 1118.98 119.134L1118.99 111.153C1118.99 110.731 1119.29 110.378 1119.69 110.342L1148.37 107.682C1148.82 107.64 1149.2 108.016 1149.2 108.495L1149.2 116.475C1149.2 116.898 1148.89 117.25 1148.5 117.287L1139.82 118.092Z" fill="white"/>
<path d="M1173.48 114.968C1173.09 115.005 1172.78 115.357 1172.78 115.78L1172.76 148.56C1172.76 148.983 1172.45 149.335 1172.06 149.372L1163.52 150.164C1163.07 150.206 1162.69 149.83 1162.69 149.351L1162.71 116.857C1162.71 116.378 1162.33 116.002 1161.88 116.044L1153.47 116.823C1153.03 116.865 1152.64 116.489 1152.64 116.01L1152.65 108.033C1152.65 107.611 1152.95 107.258 1153.35 107.222L1182.03 104.562C1182.48 104.52 1182.86 104.896 1182.86 105.375L1182.85 113.352C1182.85 113.775 1182.55 114.127 1182.16 114.164L1173.48 114.968Z" fill="white"/>
<path d="M1189.53 147.747C1189.08 147.789 1188.7 147.413 1188.7 146.934L1188.73 104.685C1188.73 104.263 1189.03 103.91 1189.43 103.874L1215.75 101.433C1216.2 101.392 1216.58 101.768 1216.58 102.247L1216.57 110.224C1216.57 110.646 1216.27 110.999 1215.87 111.035L1199.49 112.554C1199.09 112.591 1198.79 112.943 1198.79 113.366L1198.79 119.065C1198.79 119.543 1199.17 119.919 1199.62 119.878L1213.14 118.623C1213.59 118.581 1213.98 118.958 1213.97 119.436L1213.97 127.413C1213.97 127.836 1213.67 128.188 1213.27 128.225L1199.47 129.508C1199.08 129.544 1198.78 129.897 1198.78 130.319L1198.77 136.386C1198.77 136.864 1199.16 137.24 1199.6 137.199L1215.72 135.705C1216.17 135.663 1216.55 136.039 1216.55 136.518L1216.55 144.495C1216.55 144.918 1216.24 145.27 1215.85 145.307L1189.53 147.747Z" fill="white"/>
<path d="M1244.91 142.609C1244.6 142.639 1244.3 142.459 1244.16 142.157L1237.39 127.484C1237.25 127.182 1236.95 127.002 1236.63 127.032L1234.45 127.243C1234.06 127.281 1233.75 127.633 1233.75 128.054L1233.74 142.897C1233.74 143.32 1233.44 143.672 1233.05 143.709L1224.5 144.501C1224.06 144.542 1223.67 144.166 1223.67 143.688L1223.71 101.439C1223.71 101.017 1224.01 100.664 1224.4 100.628L1239.93 99.1883C1241.92 98.9666 1243.93 99.1667 1245.85 99.7771C1247.51 100.307 1249.02 101.243 1250.28 102.511C1251.46 103.722 1252.38 105.192 1252.98 106.819C1253.6 108.468 1253.91 110.227 1253.9 112.003C1253.95 114.569 1253.28 117.091 1251.97 119.24C1250.9 121.011 1249.49 122.519 1247.85 123.672C1247.51 123.913 1247.38 124.394 1247.57 124.781L1255.52 140.481C1255.78 140.997 1255.46 141.63 1254.92 141.681L1244.91 142.609ZM1242.66 109.938C1241.88 109.125 1240.81 108.781 1239.47 108.908L1234.49 109.362C1234.09 109.398 1233.79 109.751 1233.79 110.174L1233.78 117.412C1233.78 117.89 1234.17 118.266 1234.61 118.225L1239.48 117.774C1240.08 117.743 1240.68 117.584 1241.22 117.305C1241.77 117.027 1242.27 116.634 1242.67 116.151C1243.43 115.275 1243.85 114.125 1243.85 112.93C1243.86 112.37 1243.76 111.814 1243.56 111.298C1243.35 110.783 1243.05 110.32 1242.66 109.938Z" fill="white"/>
<path d="M1209.13 154.134L1255.37 149.845C1255.76 149.809 1256.07 149.457 1256.07 149.034L1256.07 147.36C1256.07 146.882 1255.68 146.506 1255.24 146.547L1209.13 150.823" fill="white"/>
<path d="M1179.14 156.864L1201.94 154.75C1202.34 154.713 1202.64 154.361 1202.64 153.939L1202.64 152.264C1202.64 151.786 1202.26 151.41 1201.81 151.451L1179.14 153.553" fill="white"/>
<path d="M1060.82 57.1194L1107.07 52.8307C1107.46 52.7941 1107.76 52.4419 1107.76 52.0194L1107.76 50.3452C1107.76 49.8669 1107.38 49.491 1106.93 49.5324L1060.83 53.8087" fill="white"/>
<path d="M1114.25 52.2166L1137.05 50.1027C1137.44 50.0662 1137.74 49.7139 1137.74 49.2913L1137.75 47.617C1137.75 47.1386 1137.36 46.7626 1136.92 46.804L1114.25 48.9055" fill="white"/>
</g>
<rect x="1109" y="691.069" width="346.746" height="388.163" rx="80.6917" transform="rotate(-12.8421 1109 691.069)" fill="#808AF2"/>
<rect x="125.774" y="247" width="179.805" height="59.75" rx="29.875" fill="#808AF2"/>
<path fill-rule="evenodd" clip-rule="evenodd" d="M177.499 267.868C177.51 267.912 177.516 267.957 177.516 268.003V275.064C177.516 275.155 177.493 275.244 177.448 275.322C177.403 275.401 177.338 275.466 177.26 275.511L171.384 278.923V285.687C171.384 285.871 171.287 286.041 171.129 286.134L158.865 293.256C158.837 293.272 158.806 293.282 158.775 293.293C158.764 293.297 158.753 293.304 158.741 293.307C158.655 293.33 158.565 293.33 158.479 293.307C158.465 293.303 158.453 293.296 158.439 293.29C158.411 293.28 158.382 293.271 158.355 293.256L146.093 286.134C146.015 286.088 145.95 286.023 145.905 285.945C145.86 285.867 145.836 285.778 145.836 285.687V264.502C145.836 264.456 145.843 264.411 145.854 264.367C145.858 264.352 145.867 264.339 145.872 264.324C145.882 264.297 145.891 264.269 145.905 264.244C145.914 264.227 145.928 264.214 145.94 264.198C145.954 264.178 145.968 264.157 145.985 264.139C146 264.124 146.019 264.113 146.035 264.1C146.054 264.085 146.071 264.068 146.092 264.056H146.092L152.224 260.495C152.301 260.449 152.389 260.426 152.479 260.426C152.568 260.426 152.656 260.449 152.734 260.495L158.865 264.056H158.867C158.887 264.068 158.904 264.085 158.923 264.099C158.939 264.112 158.958 264.124 158.973 264.138C158.99 264.157 159.003 264.178 159.018 264.198C159.029 264.214 159.044 264.227 159.053 264.244C159.068 264.27 159.076 264.297 159.086 264.324C159.091 264.339 159.1 264.352 159.104 264.368C159.116 264.412 159.122 264.457 159.122 264.502V277.734L164.231 274.766V268.002C164.231 267.957 164.237 267.911 164.249 267.868C164.253 267.853 164.262 267.839 164.267 267.825C164.277 267.797 164.286 267.77 164.3 267.745C164.31 267.728 164.324 267.714 164.334 267.699C164.35 267.678 164.362 267.657 164.38 267.639C164.395 267.624 164.414 267.613 164.43 267.601C164.449 267.585 164.466 267.568 164.486 267.556H164.487L170.619 263.995C170.696 263.95 170.784 263.926 170.874 263.926C170.964 263.926 171.052 263.95 171.129 263.995L177.261 267.556C177.282 267.569 177.299 267.585 177.318 267.6C177.334 267.613 177.352 267.624 177.367 267.639C177.385 267.657 177.398 267.678 177.413 267.699C177.425 267.714 177.439 267.728 177.448 267.745C177.462 267.77 177.47 267.797 177.481 267.825C177.486 267.839 177.495 267.853 177.499 267.868ZM176.494 274.766V268.894L174.349 270.14L171.384 271.862V277.734L176.495 274.766H176.494ZM170.363 285.389V279.513L167.447 281.193L159.121 285.986V291.918L170.363 285.389ZM146.859 265.394V285.389L158.099 291.917V285.987L152.227 282.634L152.225 282.633L152.222 282.632C152.203 282.62 152.186 282.603 152.167 282.589C152.151 282.576 152.133 282.566 152.119 282.552L152.118 282.55C152.101 282.534 152.09 282.514 152.076 282.496C152.063 282.479 152.048 282.464 152.037 282.446L152.037 282.444C152.025 282.425 152.018 282.401 152.01 282.379C152.002 282.36 151.991 282.342 151.986 282.322V282.321C151.979 282.296 151.978 282.271 151.975 282.246C151.973 282.226 151.968 282.207 151.968 282.188V282.186V268.361L149.004 266.639L146.859 265.394V265.394ZM152.479 261.536L147.371 264.502L152.478 267.469L157.586 264.502L152.478 261.536H152.479ZM155.136 280.048L158.1 278.327V265.394L155.954 266.64L152.99 268.361V281.295L155.136 280.048ZM170.874 265.036L165.766 268.003L170.874 270.969L175.981 268.002L170.874 265.036ZM170.363 271.862L167.399 270.14L165.253 268.894V274.766L168.217 276.487L170.363 277.734V271.862ZM158.609 285.095L166.102 280.78L169.847 278.624L164.743 275.66L158.866 279.073L153.51 282.183L158.609 285.095Z" fill="white"/>
<path d="M198.606 282.068H204.5V284.375H195.747V266.946H198.606V282.068ZM205.938 277.403C205.938 276.016 206.222 274.787 206.79 273.717C207.375 272.647 208.161 271.819 209.148 271.234C210.151 270.632 211.254 270.331 212.458 270.331C213.545 270.331 214.489 270.549 215.292 270.983C216.111 271.401 216.763 271.928 217.248 272.563V270.557H220.132V284.375H217.248V282.319C216.763 282.971 216.103 283.514 215.267 283.949C214.431 284.383 213.478 284.601 212.408 284.601C211.221 284.601 210.134 284.3 209.148 283.698C208.161 283.079 207.375 282.227 206.79 281.14C206.222 280.036 205.938 278.791 205.938 277.403ZM217.248 277.453C217.248 276.5 217.047 275.673 216.646 274.971C216.261 274.269 215.752 273.734 215.116 273.366C214.481 272.998 213.795 272.814 213.06 272.814C212.324 272.814 211.639 272.998 211.003 273.366C210.368 273.717 209.85 274.243 209.449 274.946C209.064 275.631 208.872 276.45 208.872 277.403C208.872 278.356 209.064 279.192 209.449 279.911C209.85 280.63 210.368 281.182 211.003 281.566C211.655 281.934 212.341 282.118 213.06 282.118C213.795 282.118 214.481 281.934 215.116 281.566C215.752 281.198 216.261 280.663 216.646 279.961C217.047 279.242 217.248 278.406 217.248 277.453ZM226.746 272.563C227.164 271.861 227.715 271.318 228.401 270.933C229.103 270.532 229.931 270.331 230.884 270.331V273.29H230.156C229.036 273.29 228.184 273.575 227.598 274.143C227.03 274.712 226.746 275.698 226.746 277.102V284.375H223.887V270.557H226.746V272.563ZM232.559 277.403C232.559 276.016 232.843 274.787 233.411 273.717C233.996 272.647 234.782 271.819 235.769 271.234C236.772 270.632 237.875 270.331 239.079 270.331C240.166 270.331 241.11 270.549 241.913 270.983C242.732 271.401 243.384 271.928 243.869 272.563V270.557H246.753V284.375H243.869V282.319C243.384 282.971 242.724 283.514 241.888 283.949C241.052 284.383 240.099 284.601 239.029 284.601C237.842 284.601 236.755 284.3 235.769 283.698C234.782 283.079 233.996 282.227 233.411 281.14C232.843 280.036 232.559 278.791 232.559 277.403ZM243.869 277.453C243.869 276.5 243.668 275.673 243.267 274.971C242.882 274.269 242.373 273.734 241.737 273.366C241.102 272.998 240.416 272.814 239.681 272.814C238.945 272.814 238.26 272.998 237.624 273.366C236.989 273.717 236.471 274.243 236.07 274.946C235.685 275.631 235.493 276.45 235.493 277.403C235.493 278.356 235.685 279.192 236.07 279.911C236.471 280.63 236.989 281.182 237.624 281.566C238.276 281.934 238.962 282.118 239.681 282.118C240.416 282.118 241.102 281.934 241.737 281.566C242.373 281.198 242.882 280.663 243.267 279.961C243.668 279.242 243.869 278.406 243.869 277.453ZM255.849 281.817L259.762 270.557H262.796L257.53 284.375H254.119L248.878 270.557H251.937L255.849 281.817ZM277.622 277.127C277.622 277.646 277.588 278.114 277.521 278.532H266.963C267.047 279.635 267.457 280.521 268.192 281.19C268.928 281.859 269.831 282.193 270.901 282.193C272.439 282.193 273.525 281.55 274.161 280.262H277.245C276.827 281.533 276.067 282.578 274.963 283.397C273.877 284.199 272.522 284.601 270.901 284.601C269.58 284.601 268.393 284.308 267.34 283.723C266.303 283.121 265.484 282.285 264.882 281.215C264.297 280.128 264.004 278.875 264.004 277.453C264.004 276.032 264.288 274.787 264.857 273.717C265.442 272.63 266.253 271.794 267.289 271.209C268.343 270.624 269.546 270.331 270.901 270.331C272.205 270.331 273.367 270.615 274.387 271.184C275.406 271.752 276.2 272.555 276.769 273.591C277.337 274.611 277.622 275.79 277.622 277.127ZM274.637 276.225C274.621 275.171 274.244 274.327 273.509 273.692C272.773 273.056 271.862 272.739 270.775 272.739C269.789 272.739 268.945 273.056 268.242 273.692C267.54 274.31 267.122 275.155 266.988 276.225H274.637ZM283.294 265.817V284.375H280.435V265.817H283.294Z" fill="white"/>
<path d="M351.343 275.826H341.631V285.779H336.534V275.826H326.822V271.21H336.534V261.258H341.631V271.21H351.343V275.826Z" fill="white"/>
<rect x="372.579" y="247" width="180.854" height="59.75" rx="29.875" fill="#808AF2"/>
<path d="M416.15 291.66C416.262 292.033 416.363 292.288 416.393 292.373C416.383 292.368 416.402 292.382 416.393 292.373C416.393 292.373 416.393 292.375 416.393 292.373C416.391 292.373 416.394 292.374 416.393 292.373C415.825 284.276 420.511 281.067 422.161 275.758C422.172 275.679 422.19 275.591 422.217 275.496C422.252 275.376 422.28 275.253 422.303 275.131C422.571 273.655 422.021 271.91 420.93 270.073C420.926 270.063 420.919 270.053 420.913 270.044C420.825 269.892 420.728 269.739 420.631 269.586C420.631 269.583 420.628 269.583 420.628 269.58C420.447 269.301 420.255 269.018 420.053 268.734C420.033 268.706 420.013 268.675 419.992 268.646C419.935 268.569 419.876 268.492 419.821 268.415C419.762 268.334 419.703 268.253 419.645 268.176C419.584 268.097 419.524 268.021 419.464 267.944C419.401 267.863 419.34 267.785 419.276 267.704C419.233 267.649 419.185 267.594 419.139 267.537C417.401 265.394 415.117 263.257 412.724 261.386C412.705 261.359 412.724 261.386 412.724 261.386C412.946 264.433 412.886 267.471 412.517 269.889C412.072 272.804 410.911 276.177 409.356 279.217C405.964 278.824 402.515 277.919 399.843 276.672C397.61 275.627 395.065 274.013 392.643 272.118C392.661 272.372 392.683 272.622 392.705 272.875C392.711 272.949 392.72 273.024 392.727 273.1C392.745 273.28 392.76 273.459 392.782 273.64C392.79 273.723 392.799 273.806 392.81 273.888C392.83 274.07 392.85 274.25 392.874 274.429C392.882 274.502 392.892 274.576 392.901 274.648C392.931 274.876 392.962 275.103 392.996 275.328C392.998 275.351 393 275.373 393.004 275.395C393.042 275.658 393.083 275.919 393.126 276.179C393.128 276.198 393.134 276.217 393.137 276.238C393.175 276.472 393.215 276.702 393.258 276.933C393.266 276.981 393.275 277.027 393.283 277.074C393.324 277.285 393.364 277.495 393.406 277.705C393.417 277.745 393.425 277.785 393.433 277.828C393.483 278.07 393.534 278.31 393.589 278.548C393.59 278.549 393.59 278.552 393.59 278.552C393.766 279.315 393.962 280.054 394.177 280.764C394.179 280.773 394.182 280.781 394.183 280.79C394.549 281.975 394.971 283.07 395.452 284.032C395.524 284.171 395.596 284.309 395.669 284.443C395.673 284.447 395.673 284.453 395.676 284.458C395.677 284.458 395.678 284.459 395.678 284.459C395.743 284.581 395.81 284.701 395.878 284.817C395.879 284.819 395.881 284.819 395.881 284.819C395.883 284.823 395.886 284.828 395.889 284.832C395.962 284.957 396.036 285.081 396.113 285.198C396.113 285.199 396.113 285.199 396.113 285.199C396.123 285.216 396.133 285.23 396.145 285.246C396.146 285.247 396.145 285.25 396.145 285.25C396.243 285.403 396.346 285.552 396.446 285.693C396.466 285.717 396.483 285.739 396.499 285.762C396.504 285.771 396.51 285.779 396.516 285.789C396.634 285.948 396.754 286.102 396.878 286.246C396.964 286.348 397.053 286.444 397.141 286.539C397.18 286.579 397.218 286.616 397.257 286.654C397.312 286.711 397.369 286.764 397.426 286.819C397.467 286.858 397.512 286.892 397.556 286.931C397.608 286.979 397.665 287.025 397.72 287.071C397.764 287.107 397.807 287.14 397.854 287.173C397.911 287.217 397.966 287.258 398.024 287.3C398.068 287.329 398.114 287.359 398.158 287.388C398.219 287.426 398.281 287.463 398.342 287.501C398.384 287.525 398.428 287.55 398.47 287.572C398.541 287.609 398.611 287.642 398.684 287.676C398.718 287.69 398.754 287.711 398.791 287.725C398.9 287.774 399.011 287.814 399.121 287.85C399.196 287.875 399.26 287.901 399.32 287.926C404.657 289.529 409.976 287.449 416.394 292.373" fill="#BABEE5"/>
<g opacity="0.8">
<path opacity="0.51" d="M412.516 269.89C412.071 272.805 410.91 276.177 409.354 279.217C415.373 279.917 421.213 279.002 422.218 275.496C423.315 271.667 418.342 265.778 412.722 261.387C412.952 264.454 412.888 267.455 412.516 269.89Z" fill="white"/>
<path opacity="0.51" d="M399.843 276.673C397.61 275.628 395.065 274.014 392.642 272.119C393.175 279.234 395.328 286.64 399.121 287.852C402.593 288.96 406.597 284.613 409.355 279.218C405.964 278.825 402.514 277.92 399.843 276.673Z" fill="white"/>
</g>
<g opacity="0.7">
<path opacity="0.7" d="M404.63 283.412C395.77 280.122 392.642 272.116 392.642 272.116C392.967 276.475 393.903 280.943 395.452 284.031C395.519 284.163 395.588 284.297 395.657 284.425C395.664 284.438 395.671 284.447 395.675 284.457C395.742 284.58 395.81 284.701 395.879 284.818C395.888 284.835 395.899 284.851 395.908 284.864C395.976 284.98 396.043 285.091 396.112 285.199C396.122 285.215 396.132 285.23 396.144 285.245C396.214 285.355 396.285 285.463 396.356 285.568C396.404 285.634 396.451 285.698 396.498 285.76C396.509 285.777 396.522 285.791 396.533 285.808C396.566 285.854 396.6 285.899 396.632 285.941C396.714 286.047 396.796 286.146 396.879 286.243C397.547 287.026 398.294 287.585 399.121 287.848C399.196 287.872 399.26 287.899 399.32 287.924C404.657 289.527 409.976 287.447 416.395 292.371C415.905 291.726 411.341 285.904 404.63 283.412Z" fill="white"/>
<path opacity="0.7" d="M422.218 275.494C423.315 271.665 418.342 265.775 412.722 261.384C412.722 261.384 417.62 268.433 415.441 277.627C413.76 284.724 416.201 291.833 416.393 292.373C416.382 292.368 416.402 292.382 416.393 292.373C416.393 292.373 416.393 292.375 416.393 292.373C416.391 292.373 416.394 292.375 416.393 292.373C415.825 284.276 420.511 281.067 422.161 275.757C422.173 275.676 422.191 275.59 422.218 275.494Z" fill="white"/>
</g>
<path d="M450.957 280.814H443.659L442.405 284.375H439.421L445.665 266.921H448.975L455.22 284.375H452.211L450.957 280.814ZM450.154 278.482L447.32 270.381L444.461 278.482H450.154ZM463.402 277.479L469.772 284.375H465.91L460.794 278.431V284.375H457.935V265.817H460.794V276.601L465.81 270.557H469.772L463.402 277.479ZM484.485 277.127C484.485 277.646 484.452 278.114 484.385 278.532H473.827C473.911 279.635 474.32 280.521 475.056 281.19C475.792 281.859 476.695 282.193 477.765 282.193C479.303 282.193 480.389 281.55 481.025 280.262H484.109C483.691 281.533 482.931 282.578 481.827 283.397C480.74 284.199 479.386 284.601 477.765 284.601C476.444 284.601 475.257 284.308 474.203 283.723C473.167 283.121 472.348 282.285 471.746 281.215C471.161 280.128 470.868 278.875 470.868 277.453C470.868 276.032 471.152 274.787 471.721 273.717C472.306 272.63 473.117 271.794 474.153 271.209C475.207 270.624 476.41 270.331 477.765 270.331C479.069 270.331 480.231 270.615 481.25 271.184C482.27 271.752 483.064 272.555 483.633 273.591C484.201 274.611 484.485 275.79 484.485 277.127ZM481.501 276.225C481.484 275.171 481.108 274.327 480.373 273.692C479.637 273.056 478.726 272.739 477.639 272.739C476.653 272.739 475.808 273.056 475.106 273.692C474.404 274.31 473.986 275.155 473.852 276.225H481.501ZM494.271 270.331C495.357 270.331 496.327 270.557 497.18 271.008C498.049 271.46 498.726 272.129 499.211 273.015C499.696 273.901 499.938 274.971 499.938 276.225V284.375H497.104V276.651C497.104 275.414 496.795 274.469 496.177 273.817C495.558 273.148 494.714 272.814 493.644 272.814C492.574 272.814 491.721 273.148 491.086 273.817C490.467 274.469 490.158 275.414 490.158 276.651V284.375H487.299V270.557H490.158V272.137C490.626 271.568 491.219 271.125 491.938 270.808C492.674 270.49 493.451 270.331 494.271 270.331ZM516.249 277.127C516.249 277.646 516.216 278.114 516.149 278.532H505.591C505.675 279.635 506.084 280.521 506.82 281.19C507.556 281.859 508.458 282.193 509.528 282.193C511.067 282.193 512.153 281.55 512.789 280.262H515.873C515.455 281.533 514.695 282.578 513.591 283.397C512.504 284.199 511.15 284.601 509.528 284.601C508.208 284.601 507.021 284.308 505.967 283.723C504.931 283.121 504.112 282.285 503.51 281.215C502.925 280.128 502.632 278.875 502.632 277.453C502.632 276.032 502.916 274.787 503.485 273.717C504.07 272.63 504.881 271.794 505.917 271.209C506.97 270.624 508.174 270.331 509.528 270.331C510.833 270.331 511.994 270.615 513.014 271.184C514.034 271.752 514.828 272.555 515.397 273.591C515.965 274.611 516.249 275.79 516.249 277.127ZM513.265 276.225C513.248 275.171 512.872 274.327 512.137 273.692C511.401 273.056 510.49 272.739 509.403 272.739C508.417 272.739 507.572 273.056 506.87 273.692C506.168 274.31 505.75 275.155 505.616 276.225H513.265ZM525.056 284.601C523.752 284.601 522.574 284.308 521.52 283.723C520.467 283.121 519.64 282.285 519.038 281.215C518.436 280.128 518.135 278.875 518.135 277.453C518.135 276.049 518.444 274.804 519.063 273.717C519.681 272.63 520.526 271.794 521.596 271.209C522.666 270.624 523.861 270.331 525.182 270.331C526.503 270.331 527.698 270.624 528.768 271.209C529.838 271.794 530.682 272.63 531.301 273.717C531.92 274.804 532.229 276.049 532.229 277.453C532.229 278.858 531.911 280.103 531.276 281.19C530.641 282.277 529.771 283.121 528.668 283.723C527.581 284.308 526.377 284.601 525.056 284.601ZM525.056 282.118C525.792 282.118 526.478 281.942 527.113 281.591C527.765 281.24 528.292 280.714 528.693 280.011C529.094 279.309 529.295 278.457 529.295 277.453C529.295 276.45 529.102 275.606 528.718 274.921C528.333 274.218 527.823 273.692 527.188 273.341C526.553 272.99 525.867 272.814 525.132 272.814C524.396 272.814 523.711 272.99 523.075 273.341C522.457 273.692 521.964 274.218 521.596 274.921C521.228 275.606 521.044 276.45 521.044 277.453C521.044 278.941 521.42 280.095 522.173 280.914C522.942 281.717 523.903 282.118 525.056 282.118Z" fill="white"/>
<path d="M137.884 380.89H149.525V387.75H128.996V351.265H137.884V380.89ZM151.997 373.198C151.997 370.218 152.552 367.602 153.661 365.35C154.804 363.098 156.346 361.365 158.286 360.153C160.226 358.94 162.392 358.333 164.783 358.333C166.827 358.333 168.611 358.749 170.136 359.581C171.695 360.412 172.89 361.504 173.722 362.855V358.749H182.609V387.75H173.722V383.644C172.856 384.995 171.643 386.087 170.084 386.918C168.559 387.75 166.775 388.166 164.731 388.166C162.375 388.166 160.226 387.559 158.286 386.347C156.346 385.099 154.804 383.35 153.661 381.098C152.552 378.811 151.997 376.177 151.997 373.198ZM173.722 373.25C173.722 371.032 173.098 369.282 171.851 368C170.638 366.718 169.148 366.077 167.381 366.077C165.614 366.077 164.107 366.718 162.86 368C161.647 369.248 161.041 370.98 161.041 373.198C161.041 375.415 161.647 377.182 162.86 378.499C164.107 379.781 165.614 380.422 167.381 380.422C169.148 380.422 170.638 379.781 171.851 378.499C173.098 377.217 173.722 375.467 173.722 373.25ZM197.926 363.583C198.966 361.989 200.265 360.742 201.824 359.841C203.383 358.905 205.116 358.437 207.021 358.437V367.844H204.579C202.361 367.844 200.698 368.33 199.589 369.3C198.481 370.235 197.926 371.898 197.926 374.289V387.75H189.039V358.749H197.926V363.583ZM209.502 373.198C209.502 370.218 210.057 367.602 211.165 365.35C212.309 363.098 213.851 361.365 215.791 360.153C217.731 358.94 219.897 358.333 222.288 358.333C224.332 358.333 226.116 358.749 227.641 359.581C229.2 360.412 230.395 361.504 231.227 362.855V358.749H240.114V387.75H231.227V383.644C230.361 384.995 229.148 386.087 227.589 386.918C226.064 387.75 224.28 388.166 222.236 388.166C219.879 388.166 217.731 387.559 215.791 386.347C213.851 385.099 212.309 383.35 211.165 381.098C210.057 378.811 209.502 376.177 209.502 373.198ZM231.227 373.25C231.227 371.032 230.603 369.282 229.356 368C228.143 366.718 226.653 366.077 224.886 366.077C223.119 366.077 221.612 366.718 220.365 368C219.152 369.248 218.546 370.98 218.546 373.198C218.546 375.415 219.152 377.182 220.365 378.499C221.612 379.781 223.119 380.422 224.886 380.422C226.653 380.422 228.143 379.781 229.356 378.499C230.603 377.217 231.227 375.467 231.227 373.25ZM259.589 379.434L265.878 358.749H275.337L265.046 387.75H254.08L243.789 358.749H253.3L259.589 379.434ZM306.415 372.782C306.415 373.613 306.363 374.48 306.259 375.381H286.146C286.284 377.182 286.856 378.568 287.861 379.538C288.9 380.474 290.165 380.942 291.655 380.942C293.872 380.942 295.414 380.006 296.28 378.135H305.739C305.254 380.041 304.371 381.756 303.089 383.28C301.841 384.805 300.265 386 298.359 386.866C296.454 387.733 294.323 388.166 291.967 388.166C289.125 388.166 286.596 387.559 284.379 386.347C282.161 385.134 280.429 383.402 279.181 381.149C277.934 378.897 277.31 376.264 277.31 373.25C277.31 370.235 277.917 367.602 279.129 365.35C280.377 363.098 282.109 361.365 284.327 360.153C286.544 358.94 289.091 358.333 291.967 358.333C294.773 358.333 297.268 358.923 299.451 360.101C301.634 361.279 303.331 362.959 304.544 365.142C305.791 367.325 306.415 369.871 306.415 372.782ZM297.32 370.443C297.32 368.919 296.8 367.706 295.761 366.805C294.721 365.904 293.422 365.454 291.863 365.454C290.373 365.454 289.108 365.887 288.069 366.753C287.064 367.619 286.44 368.849 286.198 370.443H297.32ZM319.991 349.29V387.75H311.104V349.29H319.991ZM360.157 381.305H346.54L344.357 387.75H335.054L348.255 351.265H358.546L371.747 387.75H362.34L360.157 381.305ZM357.87 374.445L353.349 361.088L348.879 374.445H357.87ZM393.487 387.75L384.652 375.588V387.75H375.765V349.29H384.652V370.547L393.436 358.749H404.402L392.344 373.302L404.506 387.75H393.487ZM435.23 372.782C435.23 373.613 435.178 374.48 435.074 375.381H414.961C415.099 377.182 415.671 378.568 416.676 379.538C417.715 380.474 418.98 380.942 420.47 380.942C422.687 380.942 424.229 380.006 425.095 378.135H434.554C434.069 380.041 433.186 381.756 431.904 383.28C430.656 384.805 429.08 386 427.174 386.866C425.269 387.733 423.138 388.166 420.782 388.166C417.94 388.166 415.411 387.559 413.194 386.347C410.976 385.134 409.244 383.402 407.996 381.149C406.749 378.897 406.125 376.264 406.125 373.25C406.125 370.235 406.732 367.602 407.944 365.35C409.192 363.098 410.924 361.365 413.142 360.153C415.359 358.94 417.906 358.333 420.782 358.333C423.588 358.333 426.083 358.923 428.266 360.101C430.449 361.279 432.146 362.959 433.359 365.142C434.606 367.325 435.23 369.871 435.23 372.782ZM426.135 370.443C426.135 368.919 425.615 367.706 424.576 366.805C423.536 365.904 422.237 365.454 420.678 365.454C419.188 365.454 417.923 365.887 416.884 366.753C415.879 367.619 415.255 368.849 415.013 370.443H426.135ZM457.589 358.437C460.985 358.437 463.687 359.546 465.697 361.764C467.741 363.947 468.763 366.961 468.763 370.807V387.75H459.928V372.002C459.928 370.062 459.426 368.555 458.421 367.481C457.416 366.407 456.065 365.87 454.367 365.87C452.669 365.87 451.318 366.407 450.313 367.481C449.308 368.555 448.806 370.062 448.806 372.002V387.75H439.919V358.749H448.806V362.595C449.707 361.313 450.919 360.308 452.444 359.581C453.969 358.819 455.684 358.437 457.589 358.437ZM502.277 372.782C502.277 373.613 502.225 374.48 502.121 375.381H482.007C482.146 377.182 482.718 378.568 483.723 379.538C484.762 380.474 486.027 380.942 487.517 380.942C489.734 380.942 491.276 380.006 492.142 378.135H501.601C501.116 380.041 500.233 381.756 498.951 383.28C497.703 384.805 496.127 386 494.221 386.866C492.315 387.733 490.185 388.166 487.828 388.166C484.987 388.166 482.458 387.559 480.24 386.347C478.023 385.134 476.29 383.402 475.043 381.149C473.796 378.897 473.172 376.264 473.172 373.25C473.172 370.235 473.778 367.602 474.991 365.35C476.239 363.098 477.971 361.365 480.188 360.153C482.406 358.94 484.953 358.333 487.828 358.333C490.635 358.333 493.13 358.923 495.312 360.101C497.495 361.279 499.193 362.959 500.406 365.142C501.653 367.325 502.277 369.871 502.277 372.782ZM493.182 370.443C493.182 368.919 492.662 367.706 491.622 366.805C490.583 365.904 489.284 365.454 487.724 365.454C486.235 365.454 484.97 365.887 483.93 366.753C482.926 367.619 482.302 368.849 482.059 370.443H493.182ZM520.166 388.166C517.325 388.166 514.761 387.559 512.474 386.347C510.222 385.134 508.438 383.402 507.121 381.149C505.839 378.897 505.198 376.264 505.198 373.25C505.198 370.27 505.857 367.654 507.173 365.402C508.49 363.115 510.292 361.365 512.578 360.153C514.865 358.94 517.429 358.333 520.27 358.333C523.111 358.333 525.675 358.94 527.962 360.153C530.249 361.365 532.051 363.115 533.367 365.402C534.684 367.654 535.342 370.27 535.342 373.25C535.342 376.229 534.667 378.863 533.315 381.149C531.999 383.402 530.18 385.134 527.858 386.347C525.572 387.559 523.008 388.166 520.166 388.166ZM520.166 380.474C521.864 380.474 523.302 379.85 524.48 378.603C525.693 377.355 526.299 375.571 526.299 373.25C526.299 370.928 525.71 369.144 524.532 367.896C523.389 366.649 521.968 366.025 520.27 366.025C518.538 366.025 517.1 366.649 515.957 367.896C514.813 369.109 514.241 370.894 514.241 373.25C514.241 375.571 514.796 377.355 515.905 378.603C517.048 379.85 518.469 380.474 520.166 380.474ZM578.876 363.011C578.876 365.125 578.391 367.065 577.421 368.832C576.451 370.564 574.961 371.968 572.951 373.042C570.942 374.116 568.447 374.653 565.467 374.653H559.958V387.75H551.071V351.265H565.467C568.378 351.265 570.838 351.768 572.848 352.772C574.857 353.777 576.364 355.163 577.369 356.93C578.374 358.697 578.876 360.724 578.876 363.011ZM564.792 367.585C566.49 367.585 567.754 367.186 568.586 366.389C569.417 365.592 569.833 364.466 569.833 363.011C569.833 361.556 569.417 360.43 568.586 359.633C567.754 358.836 566.49 358.437 564.792 358.437H559.958V367.585H564.792ZM592.39 363.583C593.43 361.989 594.729 360.742 596.288 359.841C597.848 358.905 599.58 358.437 601.486 358.437V367.844H599.043C596.825 367.844 595.162 368.33 594.054 369.3C592.945 370.235 592.39 371.898 592.39 374.289V387.75H583.503V358.749H592.39V363.583ZM618.935 388.166C616.094 388.166 613.53 387.559 611.243 386.347C608.991 385.134 607.206 383.402 605.89 381.149C604.608 378.897 603.967 376.264 603.967 373.25C603.967 370.27 604.625 367.654 605.942 365.402C607.258 363.115 609.06 361.365 611.347 360.153C613.633 358.94 616.197 358.333 619.039 358.333C621.88 358.333 624.444 358.94 626.731 360.153C629.017 361.365 630.819 363.115 632.136 365.402C633.452 367.654 634.111 370.27 634.111 373.25C634.111 376.229 633.435 378.863 632.084 381.149C630.767 383.402 628.948 385.134 626.627 386.347C624.34 387.559 621.776 388.166 618.935 388.166ZM618.935 380.474C620.632 380.474 622.07 379.85 623.248 378.603C624.461 377.355 625.067 375.571 625.067 373.25C625.067 370.928 624.478 369.144 623.3 367.896C622.157 366.649 620.736 366.025 619.039 366.025C617.306 366.025 615.868 366.649 614.725 367.896C613.581 369.109 613.01 370.894 613.01 373.25C613.01 375.571 613.564 377.355 614.673 378.603C615.816 379.85 617.237 380.474 618.935 380.474ZM637.059 373.198C637.059 370.218 637.613 367.602 638.722 365.35C639.865 363.098 641.407 361.365 643.347 360.153C645.288 358.94 647.453 358.333 649.844 358.333C651.749 358.333 653.482 358.732 655.041 359.529C656.635 360.326 657.882 361.4 658.783 362.751V349.29H667.67V387.75H658.783V383.592C657.952 384.978 656.756 386.087 655.197 386.918C653.672 387.75 651.888 388.166 649.844 388.166C647.453 388.166 645.288 387.559 643.347 386.347C641.407 385.099 639.865 383.35 638.722 381.098C637.613 378.811 637.059 376.177 637.059 373.198ZM658.783 373.25C658.783 371.032 658.159 369.282 656.912 368C655.699 366.718 654.21 366.077 652.442 366.077C650.675 366.077 649.168 366.718 647.921 368C646.708 369.248 646.102 370.98 646.102 373.198C646.102 375.415 646.708 377.182 647.921 378.499C649.168 379.781 650.675 380.422 652.442 380.422C654.21 380.422 655.699 379.781 656.912 378.499C658.159 377.217 658.783 375.467 658.783 373.25ZM702.737 358.749V387.75H693.85V383.8C692.949 385.082 691.719 386.122 690.16 386.918C688.635 387.681 686.937 388.062 685.066 388.062C682.849 388.062 680.891 387.577 679.193 386.607C677.496 385.602 676.179 384.164 675.243 382.293C674.308 380.422 673.84 378.222 673.84 375.692V358.749H682.675V374.497C682.675 376.437 683.178 377.944 684.183 379.019C685.187 380.093 686.539 380.63 688.237 380.63C689.969 380.63 691.338 380.093 692.342 379.019C693.347 377.944 693.85 376.437 693.85 374.497V358.749H702.737ZM707.354 373.25C707.354 370.235 707.96 367.602 709.173 365.35C710.42 363.098 712.135 361.365 714.318 360.153C716.535 358.94 719.065 358.333 721.906 358.333C725.544 358.333 728.576 359.286 731.001 361.192C733.461 363.098 735.072 365.783 735.835 369.248H726.376C725.579 367.03 724.037 365.921 721.75 365.921C720.121 365.921 718.822 366.562 717.852 367.844C716.882 369.092 716.397 370.894 716.397 373.25C716.397 375.606 716.882 377.425 717.852 378.707C718.822 379.954 720.121 380.578 721.75 380.578C724.037 380.578 725.579 379.469 726.376 377.252H735.835C735.072 380.647 733.461 383.315 731.001 385.255C728.541 387.196 725.509 388.166 721.906 388.166C719.065 388.166 716.535 387.559 714.318 386.347C712.135 385.134 710.42 383.402 709.173 381.149C707.96 378.897 707.354 376.264 707.354 373.25ZM756.752 380.214V387.75H752.23C749.008 387.75 746.496 386.97 744.694 385.411C742.893 383.817 741.992 381.236 741.992 377.667V366.129H738.458V358.749H741.992V351.681H750.879V358.749H756.7V366.129H750.879V377.771C750.879 378.637 751.087 379.261 751.503 379.642C751.918 380.023 752.611 380.214 753.582 380.214H756.752ZM773.5 388.166C770.971 388.166 768.719 387.733 766.744 386.866C764.769 386 763.21 384.822 762.066 383.332C760.923 381.808 760.282 380.11 760.143 378.239H768.927C769.03 379.244 769.498 380.058 770.33 380.682C771.161 381.305 772.183 381.617 773.396 381.617C774.505 381.617 775.354 381.409 775.943 380.994C776.567 380.543 776.878 379.971 776.878 379.278C776.878 378.447 776.445 377.841 775.579 377.459C774.713 377.044 773.31 376.593 771.369 376.108C769.29 375.623 767.558 375.121 766.172 374.601C764.786 374.047 763.591 373.198 762.586 372.054C761.581 370.876 761.079 369.3 761.079 367.325C761.079 365.662 761.529 364.154 762.43 362.803C763.365 361.417 764.717 360.326 766.484 359.529C768.286 358.732 770.416 358.333 772.876 358.333C776.515 358.333 779.373 359.234 781.452 361.036C783.566 362.838 784.778 365.229 785.09 368.208H776.878C776.74 367.203 776.289 366.407 775.527 365.818C774.799 365.229 773.829 364.934 772.617 364.934C771.577 364.934 770.78 365.142 770.226 365.558C769.671 365.939 769.394 366.476 769.394 367.169C769.394 368 769.827 368.624 770.694 369.04C771.594 369.456 772.98 369.871 774.851 370.287C777 370.842 778.749 371.396 780.101 371.95C781.452 372.47 782.63 373.336 783.635 374.549C784.674 375.727 785.211 377.321 785.246 379.33C785.246 381.028 784.761 382.553 783.791 383.904C782.855 385.221 781.487 386.26 779.685 387.022C777.918 387.785 775.856 388.166 773.5 388.166Z" fill="white"/>
<path d="M163.187 482.561C163.55 482.947 163.745 483.461 163.729 483.99C163.713 484.52 163.487 485.021 163.102 485.384L141.98 505.292C141.549 505.697 140.977 505.918 140.385 505.907C139.794 505.896 139.23 505.654 138.815 505.233L131.677 497.988C131.488 497.803 131.337 497.581 131.235 497.337C131.132 497.092 131.079 496.83 131.079 496.565C131.079 496.3 131.131 496.038 131.234 495.793C131.336 495.549 131.486 495.327 131.674 495.141C131.863 494.955 132.087 494.808 132.333 494.709C132.579 494.611 132.842 494.562 133.107 494.566C133.372 494.57 133.633 494.627 133.876 494.733C134.119 494.839 134.338 494.992 134.521 495.184L140.472 501.222L160.364 482.476C160.749 482.112 161.264 481.918 161.793 481.934C162.322 481.95 162.824 482.175 163.187 482.561Z" fill="white"/>
<path d="M198.752 484.509V492.017H206.937V494.434H198.752V502.167H207.903V504.584H195.82V482.092H207.903V484.509H198.752ZM211.245 495.69C211.245 493.886 211.61 492.307 212.34 490.954C213.071 489.579 214.069 488.515 215.337 487.764C216.626 487.012 218.054 486.636 219.623 486.636C221.169 486.636 222.512 486.969 223.65 487.635C224.789 488.301 225.638 489.138 226.196 490.148V486.926H229.161V504.584H226.196V501.297C225.616 502.328 224.746 503.188 223.586 503.875C222.447 504.541 221.116 504.874 219.59 504.874C218.022 504.874 216.604 504.487 215.337 503.714C214.069 502.941 213.071 501.856 212.34 500.459C211.61 499.063 211.245 497.473 211.245 495.69ZM226.196 495.723C226.196 494.391 225.928 493.231 225.39 492.243C224.853 491.254 224.123 490.503 223.199 489.987C222.297 489.45 221.298 489.181 220.203 489.181C219.107 489.181 218.108 489.439 217.206 489.955C216.304 490.47 215.584 491.222 215.047 492.21C214.51 493.199 214.241 494.359 214.241 495.69C214.241 497.044 214.51 498.225 215.047 499.235C215.584 500.223 216.304 500.986 217.206 501.523C218.108 502.038 219.107 502.296 220.203 502.296C221.298 502.296 222.297 502.038 223.199 501.523C224.123 500.986 224.853 500.223 225.39 499.235C225.928 498.225 226.196 497.055 226.196 495.723ZM240.367 504.874C239.014 504.874 237.8 504.648 236.726 504.197C235.652 503.725 234.803 503.08 234.18 502.264C233.557 501.426 233.214 500.47 233.149 499.396H236.178C236.264 500.277 236.672 500.996 237.403 501.555C238.155 502.114 239.132 502.393 240.335 502.393C241.452 502.393 242.333 502.146 242.977 501.652C243.622 501.158 243.944 500.535 243.944 499.783C243.944 499.009 243.6 498.44 242.913 498.075C242.225 497.688 241.162 497.312 239.723 496.947C238.412 496.603 237.338 496.26 236.5 495.916C235.684 495.551 234.975 495.024 234.374 494.337C233.794 493.628 233.504 492.704 233.504 491.566C233.504 490.664 233.772 489.837 234.309 489.085C234.846 488.333 235.609 487.742 236.597 487.312C237.585 486.861 238.713 486.636 239.98 486.636C241.935 486.636 243.514 487.13 244.717 488.118C245.92 489.106 246.565 490.46 246.651 492.178H243.718C243.654 491.254 243.278 490.513 242.591 489.955C241.925 489.396 241.022 489.117 239.884 489.117C238.831 489.117 237.993 489.342 237.37 489.794C236.747 490.245 236.436 490.835 236.436 491.566C236.436 492.146 236.619 492.629 236.984 493.016C237.37 493.381 237.843 493.682 238.402 493.918C238.982 494.133 239.776 494.38 240.786 494.659C242.053 495.003 243.085 495.347 243.879 495.69C244.674 496.013 245.351 496.507 245.91 497.173C246.49 497.839 246.79 498.709 246.812 499.783C246.812 500.749 246.543 501.619 246.006 502.393C245.469 503.166 244.707 503.778 243.718 504.23C242.752 504.659 241.635 504.874 240.367 504.874ZM252.466 484.058C251.907 484.058 251.435 483.865 251.048 483.478C250.661 483.091 250.468 482.619 250.468 482.06C250.468 481.502 250.661 481.029 251.048 480.642C251.435 480.256 251.907 480.062 252.466 480.062C253.003 480.062 253.454 480.256 253.819 480.642C254.206 481.029 254.399 481.502 254.399 482.06C254.399 482.619 254.206 483.091 253.819 483.478C253.454 483.865 253.003 484.058 252.466 484.058ZM253.883 486.926V504.584H250.951V486.926H253.883ZM261.813 480.739V504.584H258.881V480.739H261.813ZM282.02 486.926L271.387 512.898H268.358L271.838 504.391L264.716 486.926H267.971L273.513 501.233L278.991 486.926H282.02ZM309.67 495.078C309.67 495.637 309.638 496.227 309.573 496.85H295.46C295.567 498.59 296.158 499.955 297.232 500.943C298.328 501.909 299.649 502.393 301.195 502.393C302.463 502.393 303.516 502.103 304.353 501.523C305.213 500.921 305.814 500.126 306.158 499.138H309.316C308.843 500.835 307.898 502.221 306.48 503.295C305.062 504.348 303.301 504.874 301.195 504.874C299.52 504.874 298.016 504.498 296.684 503.746C295.374 502.994 294.343 501.931 293.591 500.556C292.839 499.16 292.463 497.549 292.463 495.723C292.463 493.897 292.828 492.296 293.559 490.921C294.289 489.547 295.309 488.494 296.62 487.764C297.952 487.012 299.477 486.636 301.195 486.636C302.871 486.636 304.353 487.001 305.642 487.731C306.931 488.462 307.919 489.471 308.607 490.76C309.316 492.028 309.67 493.467 309.67 495.078ZM306.641 494.466C306.641 493.349 306.394 492.393 305.9 491.598C305.406 490.782 304.729 490.17 303.87 489.761C303.032 489.332 302.098 489.117 301.067 489.117C299.584 489.117 298.317 489.59 297.264 490.535C296.233 491.48 295.642 492.79 295.492 494.466H306.641ZM322.756 504.584L318.567 498.01L314.54 504.584H311.478L317.182 495.819L311.478 486.926H314.797L318.986 493.467L322.982 486.926H326.043L320.372 495.658L326.075 504.584H322.756ZM331.892 490.18C332.472 489.171 333.331 488.333 334.47 487.667C335.63 486.979 336.973 486.636 338.498 486.636C340.066 486.636 341.484 487.012 342.751 487.764C344.04 488.515 345.05 489.579 345.78 490.954C346.511 492.307 346.876 493.886 346.876 495.69C346.876 497.473 346.511 499.063 345.78 500.459C345.05 501.856 344.04 502.941 342.751 503.714C341.484 504.487 340.066 504.874 338.498 504.874C336.994 504.874 335.662 504.541 334.502 503.875C333.364 503.188 332.494 502.339 331.892 501.329V512.962H328.96V486.926H331.892V490.18ZM343.879 495.69C343.879 494.359 343.611 493.199 343.074 492.21C342.537 491.222 341.806 490.47 340.882 489.955C339.98 489.439 338.981 489.181 337.886 489.181C336.812 489.181 335.813 489.45 334.889 489.987C333.987 490.503 333.256 491.265 332.698 492.275C332.161 493.263 331.892 494.412 331.892 495.723C331.892 497.055 332.161 498.225 332.698 499.235C333.256 500.223 333.987 500.986 334.889 501.523C335.813 502.038 336.812 502.296 337.886 502.296C338.981 502.296 339.98 502.038 340.882 501.523C341.806 500.986 342.537 500.223 343.074 499.235C343.611 498.225 343.879 497.044 343.879 495.69ZM358.437 504.874C356.783 504.874 355.279 504.498 353.926 503.746C352.594 502.994 351.541 501.931 350.768 500.556C350.016 499.16 349.64 497.549 349.64 495.723C349.64 493.918 350.027 492.328 350.8 490.954C351.595 489.557 352.669 488.494 354.022 487.764C355.376 487.012 356.89 486.636 358.566 486.636C360.241 486.636 361.756 487.012 363.109 487.764C364.463 488.494 365.526 489.547 366.299 490.921C367.094 492.296 367.492 493.897 367.492 495.723C367.492 497.549 367.083 499.16 366.267 500.556C365.472 501.931 364.387 502.994 363.013 503.746C361.638 504.498 360.113 504.874 358.437 504.874ZM358.437 502.296C359.49 502.296 360.478 502.049 361.401 501.555C362.325 501.061 363.066 500.32 363.625 499.332C364.205 498.343 364.495 497.14 364.495 495.723C364.495 494.305 364.216 493.102 363.657 492.114C363.099 491.125 362.368 490.395 361.466 489.922C360.564 489.428 359.586 489.181 358.534 489.181C357.46 489.181 356.471 489.428 355.569 489.922C354.688 490.395 353.979 491.125 353.442 492.114C352.905 493.102 352.637 494.305 352.637 495.723C352.637 497.162 352.895 498.376 353.41 499.364C353.947 500.352 354.656 501.093 355.537 501.587C356.418 502.06 357.384 502.296 358.437 502.296ZM374.279 489.794C374.795 488.784 375.525 488 376.471 487.441C377.437 486.883 378.608 486.604 379.983 486.604V489.632H379.209C375.923 489.632 374.279 491.415 374.279 494.982V504.584H371.347V486.926H374.279V489.794ZM386.945 489.342V499.751C386.945 500.61 387.127 501.222 387.492 501.587C387.858 501.931 388.491 502.103 389.393 502.103H391.552V504.584H388.91C387.277 504.584 386.053 504.208 385.237 503.456C384.42 502.704 384.012 501.469 384.012 499.751V489.342H381.724V486.926H384.012V482.479H386.945V486.926H391.552V489.342H386.945ZM406.628 490.18C407.208 489.171 408.068 488.333 409.206 487.667C410.366 486.979 411.709 486.636 413.234 486.636C414.802 486.636 416.22 487.012 417.487 487.764C418.776 488.515 419.786 489.579 420.516 490.954C421.247 492.307 421.612 493.886 421.612 495.69C421.612 497.473 421.247 499.063 420.516 500.459C419.786 501.856 418.776 502.941 417.487 503.714C416.22 504.487 414.802 504.874 413.234 504.874C411.73 504.874 410.398 504.541 409.238 503.875C408.1 503.188 407.23 502.339 406.628 501.329V512.962H403.696V486.926H406.628V490.18ZM418.615 495.69C418.615 494.359 418.347 493.199 417.81 492.21C417.273 491.222 416.542 490.47 415.618 489.955C414.716 489.439 413.717 489.181 412.622 489.181C411.548 489.181 410.549 489.45 409.625 489.987C408.723 490.503 407.992 491.265 407.434 492.275C406.897 493.263 406.628 494.412 406.628 495.723C406.628 497.055 406.897 498.225 407.434 499.235C407.992 500.223 408.723 500.986 409.625 501.523C410.549 502.038 411.548 502.296 412.622 502.296C413.717 502.296 414.716 502.038 415.618 501.523C416.542 500.986 417.273 500.223 417.81 499.235C418.347 498.225 418.615 497.044 418.615 495.69ZM428.404 489.794C428.92 488.784 429.65 488 430.595 487.441C431.562 486.883 432.733 486.604 434.107 486.604V489.632H433.334C430.047 489.632 428.404 491.415 428.404 494.982V504.584H425.472V486.926H428.404V489.794ZM445.194 504.874C443.54 504.874 442.036 504.498 440.682 503.746C439.351 502.994 438.298 501.931 437.525 500.556C436.773 499.16 436.397 497.549 436.397 495.723C436.397 493.918 436.783 492.328 437.557 490.954C438.352 489.557 439.426 488.494 440.779 487.764C442.133 487.012 443.647 486.636 445.323 486.636C446.998 486.636 448.513 487.012 449.866 487.764C451.219 488.494 452.283 489.547 453.056 490.921C453.851 492.296 454.248 493.897 454.248 495.723C454.248 497.549 453.84 499.16 453.024 500.556C452.229 501.931 451.144 502.994 449.769 503.746C448.395 504.498 446.869 504.874 445.194 504.874ZM445.194 502.296C446.246 502.296 447.234 502.049 448.158 501.555C449.082 501.061 449.823 500.32 450.382 499.332C450.962 498.343 451.252 497.14 451.252 495.723C451.252 494.305 450.972 493.102 450.414 492.114C449.855 491.125 449.125 490.395 448.223 489.922C447.32 489.428 446.343 489.181 445.29 489.181C444.216 489.181 443.228 489.428 442.326 489.922C441.445 490.395 440.736 491.125 440.199 492.114C439.662 493.102 439.394 494.305 439.394 495.723C439.394 497.162 439.651 498.376 440.167 499.364C440.704 500.352 441.413 501.093 442.294 501.587C443.174 502.06 444.141 502.296 445.194 502.296ZM457.008 495.69C457.008 493.886 457.373 492.307 458.104 490.954C458.834 489.579 459.833 488.515 461.101 487.764C462.389 487.012 463.829 486.636 465.418 486.636C466.793 486.636 468.071 486.958 469.253 487.602C470.435 488.225 471.337 489.052 471.96 490.084V480.739H474.924V504.584H471.96V501.265C471.38 502.318 470.52 503.188 469.382 503.875C468.243 504.541 466.911 504.874 465.386 504.874C463.818 504.874 462.389 504.487 461.101 503.714C459.833 502.941 458.834 501.856 458.104 500.459C457.373 499.063 457.008 497.473 457.008 495.69ZM471.96 495.723C471.96 494.391 471.691 493.231 471.154 492.243C470.617 491.254 469.887 490.503 468.963 489.987C468.061 489.45 467.062 489.181 465.966 489.181C464.871 489.181 463.872 489.439 462.97 489.955C462.067 490.47 461.348 491.222 460.811 492.21C460.274 493.199 460.005 494.359 460.005 495.69C460.005 497.044 460.274 498.225 460.811 499.235C461.348 500.223 462.067 500.986 462.97 501.523C463.872 502.038 464.871 502.296 465.966 502.296C467.062 502.296 468.061 502.038 468.963 501.523C469.887 500.986 470.617 500.223 471.154 499.235C471.691 498.225 471.96 497.055 471.96 495.723ZM495.54 486.926V504.584H492.608V501.974C492.049 502.876 491.265 503.585 490.255 504.101C489.267 504.595 488.172 504.842 486.969 504.842C485.594 504.842 484.359 504.563 483.263 504.004C482.167 503.424 481.297 502.565 480.653 501.426C480.03 500.288 479.718 498.902 479.718 497.269V486.926H482.619V496.883C482.619 498.623 483.059 499.965 483.94 500.911C484.82 501.834 486.023 502.296 487.549 502.296C489.117 502.296 490.352 501.813 491.254 500.846C492.157 499.879 492.608 498.472 492.608 496.625V486.926H495.54ZM499.395 495.723C499.395 493.897 499.761 492.307 500.491 490.954C501.221 489.579 502.231 488.515 503.52 487.764C504.83 487.012 506.323 486.636 507.999 486.636C510.169 486.636 511.952 487.162 513.348 488.215C514.766 489.267 515.7 490.728 516.151 492.597H512.994C512.693 491.523 512.102 490.674 511.221 490.051C510.362 489.428 509.288 489.117 507.999 489.117C506.323 489.117 504.97 489.697 503.939 490.857C502.908 491.996 502.392 493.617 502.392 495.723C502.392 497.849 502.908 499.493 503.939 500.653C504.97 501.813 506.323 502.393 507.999 502.393C509.288 502.393 510.362 502.092 511.221 501.491C512.081 500.889 512.671 500.03 512.994 498.913H516.151C515.679 500.717 514.734 502.167 513.316 503.263C511.898 504.337 510.126 504.874 507.999 504.874C506.323 504.874 504.83 504.498 503.52 503.746C502.231 502.994 501.221 501.931 500.491 500.556C499.761 499.181 499.395 497.57 499.395 495.723ZM523.641 489.342V499.751C523.641 500.61 523.823 501.222 524.188 501.587C524.554 501.931 525.187 502.103 526.09 502.103H528.249V504.584H525.606C523.974 504.584 522.749 504.208 521.933 503.456C521.117 502.704 520.708 501.469 520.708 499.751V489.342H518.421V486.926H520.708V482.479H523.641V486.926H528.249V489.342H523.641ZM538.053 504.874C536.699 504.874 535.486 504.648 534.412 504.197C533.337 503.725 532.489 503.08 531.866 502.264C531.243 501.426 530.899 500.47 530.835 499.396H533.864C533.95 500.277 534.358 500.996 535.088 501.555C535.84 502.114 536.818 502.393 538.021 502.393C539.138 502.393 540.018 502.146 540.663 501.652C541.307 501.158 541.629 500.535 541.629 499.783C541.629 499.009 541.286 498.44 540.598 498.075C539.911 497.688 538.848 497.312 537.408 496.947C536.098 496.603 535.024 496.26 534.186 495.916C533.37 495.551 532.661 495.024 532.059 494.337C531.479 493.628 531.189 492.704 531.189 491.566C531.189 490.664 531.458 489.837 531.995 489.085C532.532 488.333 533.294 487.742 534.283 487.312C535.271 486.861 536.399 486.636 537.666 486.636C539.621 486.636 541.2 487.13 542.403 488.118C543.606 489.106 544.25 490.46 544.336 492.178H541.404C541.339 491.254 540.964 490.513 540.276 489.955C539.61 489.396 538.708 489.117 537.569 489.117C536.517 489.117 535.679 489.342 535.056 489.794C534.433 490.245 534.122 490.835 534.122 491.566C534.122 492.146 534.304 492.629 534.669 493.016C535.056 493.381 535.529 493.682 536.087 493.918C536.667 494.133 537.462 494.38 538.472 494.659C539.739 495.003 540.77 495.347 541.565 495.69C542.36 496.013 543.037 496.507 543.595 497.173C544.175 497.839 544.476 498.709 544.497 499.783C544.497 500.749 544.229 501.619 543.692 502.393C543.155 503.166 542.392 503.778 541.404 504.23C540.437 504.659 539.32 504.874 538.053 504.874ZM560.804 489.342V499.751C560.804 500.61 560.987 501.222 561.352 501.587C561.717 501.931 562.351 502.103 563.253 502.103H565.412V504.584H562.77C561.137 504.584 559.913 504.208 559.096 503.456C558.28 502.704 557.872 501.469 557.872 499.751V489.342H555.584V486.926H557.872V482.479H560.804V486.926H565.412V489.342H560.804ZM576.666 504.874C575.012 504.874 573.508 504.498 572.155 503.746C570.823 502.994 569.771 501.931 568.997 500.556C568.245 499.16 567.869 497.549 567.869 495.723C567.869 493.918 568.256 492.328 569.029 490.954C569.824 489.557 570.898 488.494 572.252 487.764C573.605 487.012 575.12 486.636 576.795 486.636C578.471 486.636 579.985 487.012 581.339 487.764C582.692 488.494 583.755 489.547 584.529 490.921C585.324 492.296 585.721 493.897 585.721 495.723C585.721 497.549 585.313 499.16 584.496 500.556C583.702 501.931 582.617 502.994 581.242 503.746C579.867 504.498 578.342 504.874 576.666 504.874ZM576.666 502.296C577.719 502.296 578.707 502.049 579.631 501.555C580.554 501.061 581.296 500.32 581.854 499.332C582.434 498.343 582.724 497.14 582.724 495.723C582.724 494.305 582.445 493.102 581.886 492.114C581.328 491.125 580.597 490.395 579.695 489.922C578.793 489.428 577.816 489.181 576.763 489.181C575.689 489.181 574.701 489.428 573.798 489.922C572.918 490.395 572.209 491.125 571.672 492.114C571.135 493.102 570.866 494.305 570.866 495.723C570.866 497.162 571.124 498.376 571.639 499.364C572.177 500.352 572.885 501.093 573.766 501.587C574.647 502.06 575.614 502.296 576.666 502.296ZM611.443 499.589H601.647L599.843 504.584H596.749L604.869 482.253H608.253L616.341 504.584H613.247L611.443 499.589ZM610.605 497.205L606.545 485.862L602.485 497.205H610.605ZM629.74 504.584L622.812 496.786V504.584H619.88V480.739H622.812V494.756L629.611 486.926H633.704L625.39 495.723L633.736 504.584H629.74ZM652.575 495.078C652.575 495.637 652.543 496.227 652.478 496.85H638.365C638.472 498.59 639.063 499.955 640.137 500.943C641.232 501.909 642.554 502.393 644.1 502.393C645.368 502.393 646.42 502.103 647.258 501.523C648.117 500.921 648.719 500.126 649.063 499.138H652.22C651.748 500.835 650.803 502.221 649.385 503.295C647.967 504.348 646.206 504.874 644.1 504.874C642.425 504.874 640.921 504.498 639.589 503.746C638.279 502.994 637.248 501.931 636.496 500.556C635.744 499.16 635.368 497.549 635.368 495.723C635.368 493.897 635.733 492.296 636.463 490.921C637.194 489.547 638.214 488.494 639.525 487.764C640.856 487.012 642.382 486.636 644.1 486.636C645.776 486.636 647.258 487.001 648.547 487.731C649.836 488.462 650.824 489.471 651.512 490.76C652.22 492.028 652.575 493.467 652.575 495.078ZM649.546 494.466C649.546 493.349 649.299 492.393 648.805 491.598C648.311 490.782 647.634 490.17 646.775 489.761C645.937 489.332 645.003 489.117 643.971 489.117C642.489 489.117 641.222 489.59 640.169 490.535C639.138 491.48 638.547 492.79 638.397 494.466H649.546ZM665.049 486.604C667.197 486.604 668.937 487.259 670.269 488.569C671.601 489.858 672.267 491.727 672.267 494.176V504.584H669.367V494.595C669.367 492.833 668.927 491.491 668.046 490.567C667.165 489.622 665.962 489.149 664.437 489.149C662.89 489.149 661.655 489.632 660.731 490.599C659.829 491.566 659.378 492.973 659.378 494.82V504.584H656.445V486.926H659.378V489.439C659.958 488.537 660.742 487.839 661.73 487.345C662.74 486.851 663.846 486.604 665.049 486.604ZM693.168 495.078C693.168 495.637 693.136 496.227 693.072 496.85H678.958C679.065 498.59 679.656 499.955 680.73 500.943C681.826 501.909 683.147 502.393 684.694 502.393C685.961 502.393 687.014 502.103 687.852 501.523C688.711 500.921 689.312 500.126 689.656 499.138H692.814C692.341 500.835 691.396 502.221 689.978 503.295C688.561 504.348 686.799 504.874 684.694 504.874C683.018 504.874 681.514 504.498 680.183 503.746C678.872 502.994 677.841 501.931 677.089 500.556C676.337 499.16 675.961 497.549 675.961 495.723C675.961 493.897 676.326 492.296 677.057 490.921C677.787 489.547 678.808 488.494 680.118 487.764C681.45 487.012 682.975 486.636 684.694 486.636C686.369 486.636 687.852 487.001 689.141 487.731C690.429 488.462 691.418 489.471 692.105 490.76C692.814 492.028 693.168 493.467 693.168 495.078ZM690.139 494.466C690.139 493.349 689.892 492.393 689.398 491.598C688.904 490.782 688.228 490.17 687.368 489.761C686.53 489.332 685.596 489.117 684.565 489.117C683.083 489.117 681.815 489.59 680.763 490.535C679.731 491.48 679.141 492.79 678.99 494.466H690.139ZM704.74 504.874C703.086 504.874 701.582 504.498 700.229 503.746C698.897 502.994 697.845 501.931 697.071 500.556C696.319 499.16 695.943 497.549 695.943 495.723C695.943 493.918 696.33 492.328 697.103 490.954C697.898 489.557 698.972 488.494 700.326 487.764C701.679 487.012 703.194 486.636 704.869 486.636C706.545 486.636 708.059 487.012 709.413 487.764C710.766 488.494 711.829 489.547 712.603 490.921C713.398 492.296 713.795 493.897 713.795 495.723C713.795 497.549 713.387 499.16 712.57 500.556C711.776 501.931 710.691 502.994 709.316 503.746C707.941 504.498 706.416 504.874 704.74 504.874ZM704.74 502.296C705.793 502.296 706.781 502.049 707.705 501.555C708.629 501.061 709.37 500.32 709.928 499.332C710.508 498.343 710.798 497.14 710.798 495.723C710.798 494.305 710.519 493.102 709.96 492.114C709.402 491.125 708.671 490.395 707.769 489.922C706.867 489.428 705.89 489.181 704.837 489.181C703.763 489.181 702.775 489.428 701.872 489.922C700.992 490.395 700.283 491.125 699.746 492.114C699.209 493.102 698.94 494.305 698.94 495.723C698.94 497.162 699.198 498.376 699.713 499.364C700.251 500.352 700.959 501.093 701.84 501.587C702.721 502.06 703.688 502.296 704.74 502.296Z" fill="white"/>
<path d="M163.187 545.178C163.55 545.564 163.745 546.078 163.729 546.607C163.713 547.137 163.487 547.638 163.102 548.001L141.98 567.909C141.549 568.315 140.977 568.535 140.385 568.525C139.794 568.514 139.23 568.272 138.815 567.85L131.677 560.606C131.488 560.42 131.337 560.198 131.235 559.954C131.132 559.71 131.079 559.447 131.079 559.182C131.079 558.917 131.131 558.655 131.234 558.41C131.336 558.166 131.486 557.944 131.674 557.758C131.863 557.572 132.087 557.425 132.333 557.327C132.579 557.228 132.842 557.179 133.107 557.183C133.372 557.187 133.633 557.244 133.876 557.35C134.119 557.456 134.338 557.609 134.521 557.801L140.472 563.839L160.364 545.093C160.749 544.73 161.264 544.535 161.793 544.551C162.322 544.567 162.824 544.792 163.187 545.178Z" fill="white"/>
<path d="M202.941 567.427C201.459 567.427 200.127 567.169 198.945 566.653C197.785 566.116 196.872 565.386 196.206 564.462C195.54 563.517 195.197 562.432 195.175 561.208H198.301C198.408 562.26 198.838 563.152 199.59 563.882C200.363 564.591 201.48 564.946 202.941 564.946C204.337 564.946 205.433 564.602 206.228 563.914C207.044 563.206 207.452 562.303 207.452 561.208C207.452 560.348 207.216 559.65 206.743 559.113C206.271 558.576 205.68 558.168 204.971 557.889C204.262 557.609 203.306 557.309 202.103 556.986C200.621 556.6 199.429 556.213 198.526 555.826C197.646 555.44 196.883 554.838 196.238 554.022C195.615 553.184 195.304 552.067 195.304 550.671C195.304 549.446 195.615 548.361 196.238 547.416C196.861 546.471 197.731 545.741 198.849 545.225C199.987 544.709 201.287 544.452 202.748 544.452C204.853 544.452 206.571 544.978 207.903 546.031C209.257 547.083 210.019 548.48 210.191 550.22H206.969C206.861 549.36 206.41 548.608 205.615 547.964C204.821 547.298 203.768 546.965 202.458 546.965C201.233 546.965 200.234 547.287 199.461 547.932C198.687 548.555 198.301 549.436 198.301 550.574C198.301 551.39 198.526 552.056 198.977 552.572C199.45 553.087 200.019 553.485 200.685 553.764C201.373 554.022 202.329 554.323 203.553 554.666C205.035 555.075 206.228 555.483 207.13 555.891C208.032 556.278 208.805 556.89 209.45 557.728C210.094 558.544 210.417 559.661 210.417 561.079C210.417 562.174 210.127 563.206 209.547 564.172C208.967 565.139 208.107 565.923 206.969 566.524C205.83 567.126 204.488 567.427 202.941 567.427ZM230.392 549.543V567.201H227.46V564.591C226.901 565.493 226.117 566.202 225.108 566.718C224.119 567.212 223.024 567.459 221.821 567.459C220.446 567.459 219.211 567.18 218.115 566.621C217.02 566.041 216.15 565.182 215.505 564.043C214.882 562.905 214.571 561.519 214.571 559.887V549.543H217.471V559.5C217.471 561.24 217.911 562.583 218.792 563.528C219.673 564.451 220.876 564.913 222.401 564.913C223.969 564.913 225.204 564.43 226.106 563.463C227.009 562.497 227.46 561.09 227.46 559.242V549.543H230.392ZM238.275 552.797C238.855 551.788 239.715 550.95 240.853 550.284C242.013 549.597 243.356 549.253 244.881 549.253C246.449 549.253 247.867 549.629 249.135 550.381C250.424 551.133 251.433 552.196 252.164 553.571C252.894 554.924 253.259 556.503 253.259 558.308C253.259 560.091 252.894 561.68 252.164 563.077C251.433 564.473 250.424 565.558 249.135 566.331C247.867 567.105 246.449 567.491 244.881 567.491C243.377 567.491 242.046 567.158 240.885 566.492C239.747 565.805 238.877 564.956 238.275 563.947V575.579H235.343V549.543H238.275V552.797ZM250.262 558.308C250.262 556.976 249.994 555.816 249.457 554.828C248.92 553.839 248.189 553.087 247.266 552.572C246.363 552.056 245.364 551.799 244.269 551.799C243.195 551.799 242.196 552.067 241.272 552.604C240.37 553.12 239.64 553.882 239.081 554.892C238.544 555.88 238.275 557.029 238.275 558.34C238.275 559.672 238.544 560.842 239.081 561.852C239.64 562.84 240.37 563.603 241.272 564.14C242.196 564.656 243.195 564.913 244.269 564.913C245.364 564.913 246.363 564.656 247.266 564.14C248.189 563.603 248.92 562.84 249.457 561.852C249.994 560.842 250.262 559.661 250.262 558.308ZM260.051 552.797C260.631 551.788 261.49 550.95 262.629 550.284C263.789 549.597 265.132 549.253 266.657 549.253C268.225 549.253 269.643 549.629 270.91 550.381C272.199 551.133 273.209 552.196 273.939 553.571C274.67 554.924 275.035 556.503 275.035 558.308C275.035 560.091 274.67 561.68 273.939 563.077C273.209 564.473 272.199 565.558 270.91 566.331C269.643 567.105 268.225 567.491 266.657 567.491C265.153 567.491 263.821 567.158 262.661 566.492C261.523 565.805 260.653 564.956 260.051 563.947V575.579H257.119V549.543H260.051V552.797ZM272.038 558.308C272.038 556.976 271.77 555.816 271.233 554.828C270.696 553.839 269.965 553.087 269.041 552.572C268.139 552.056 267.14 551.799 266.045 551.799C264.971 551.799 263.972 552.067 263.048 552.604C262.146 553.12 261.415 553.882 260.857 554.892C260.32 555.88 260.051 557.029 260.051 558.34C260.051 559.672 260.32 560.842 260.857 561.852C261.415 562.84 262.146 563.603 263.048 564.14C263.972 564.656 264.971 564.913 266.045 564.913C267.14 564.913 268.139 564.656 269.041 564.14C269.965 563.603 270.696 562.84 271.233 561.852C271.77 560.842 272.038 559.661 272.038 558.308ZM286.596 567.491C284.942 567.491 283.438 567.115 282.085 566.363C280.753 565.612 279.7 564.548 278.927 563.173C278.175 561.777 277.799 560.166 277.799 558.34C277.799 556.535 278.186 554.946 278.959 553.571C279.754 552.174 280.828 551.111 282.181 550.381C283.535 549.629 285.049 549.253 286.725 549.253C288.4 549.253 289.915 549.629 291.268 550.381C292.622 551.111 293.685 552.164 294.458 553.539C295.253 554.913 295.651 556.514 295.651 558.34C295.651 560.166 295.242 561.777 294.426 563.173C293.631 564.548 292.546 565.612 291.172 566.363C289.797 567.115 288.272 567.491 286.596 567.491ZM286.596 564.913C287.649 564.913 288.637 564.666 289.56 564.172C290.484 563.678 291.225 562.937 291.784 561.949C292.364 560.961 292.654 559.758 292.654 558.34C292.654 556.922 292.375 555.719 291.816 554.731C291.258 553.743 290.527 553.012 289.625 552.54C288.723 552.046 287.745 551.799 286.693 551.799C285.618 551.799 284.63 552.046 283.728 552.54C282.847 553.012 282.138 553.743 281.601 554.731C281.064 555.719 280.796 556.922 280.796 558.34C280.796 559.779 281.054 560.993 281.569 561.981C282.106 562.969 282.815 563.71 283.696 564.204C284.577 564.677 285.543 564.913 286.596 564.913ZM302.438 552.411C302.954 551.401 303.684 550.617 304.629 550.059C305.596 549.5 306.767 549.221 308.142 549.221V552.25H307.368C304.082 552.25 302.438 554.033 302.438 557.599V567.201H299.506V549.543H302.438V552.411ZM315.103 551.96V562.368C315.103 563.227 315.286 563.839 315.651 564.204C316.016 564.548 316.65 564.72 317.552 564.72H319.711V567.201H317.069C315.436 567.201 314.212 566.825 313.396 566.073C312.579 565.321 312.171 564.086 312.171 562.368V551.96H309.883V549.543H312.171V545.096H315.103V549.543H319.711V551.96H315.103ZM339.041 551.96H335.335V567.201H332.403V551.96H330.115V549.543H332.403V548.286C332.403 546.31 332.908 544.871 333.917 543.968C334.948 543.045 336.592 542.583 338.847 542.583V545.032C337.558 545.032 336.645 545.29 336.108 545.805C335.593 546.299 335.335 547.126 335.335 548.286V549.543H339.041V551.96ZM350.161 567.491C348.507 567.491 347.003 567.115 345.65 566.363C344.318 565.612 343.265 564.548 342.492 563.173C341.74 561.777 341.364 560.166 341.364 558.34C341.364 556.535 341.751 554.946 342.524 553.571C343.319 552.174 344.393 551.111 345.746 550.381C347.1 549.629 348.614 549.253 350.29 549.253C351.965 549.253 353.48 549.629 354.833 550.381C356.187 551.111 357.25 552.164 358.023 553.539C358.818 554.913 359.216 556.514 359.216 558.34C359.216 560.166 358.807 561.777 357.991 563.173C357.196 564.548 356.111 565.612 354.737 566.363C353.362 567.115 351.836 567.491 350.161 567.491ZM350.161 564.913C351.214 564.913 352.202 564.666 353.125 564.172C354.049 563.678 354.79 562.937 355.349 561.949C355.929 560.961 356.219 559.758 356.219 558.34C356.219 556.922 355.94 555.719 355.381 554.731C354.822 553.743 354.092 553.012 353.19 552.54C352.288 552.046 351.31 551.799 350.258 551.799C349.183 551.799 348.195 552.046 347.293 552.54C346.412 553.012 345.703 553.743 345.166 554.731C344.629 555.719 344.361 556.922 344.361 558.34C344.361 559.779 344.619 560.993 345.134 561.981C345.671 562.969 346.38 563.71 347.261 564.204C348.142 564.677 349.108 564.913 350.161 564.913ZM366.003 552.411C366.519 551.401 367.249 550.617 368.194 550.059C369.161 549.5 370.332 549.221 371.707 549.221V552.25H370.933C367.647 552.25 366.003 554.033 366.003 557.599V567.201H363.071V549.543H366.003V552.411ZM386.615 552.797C387.195 551.788 388.054 550.95 389.193 550.284C390.353 549.597 391.695 549.253 393.22 549.253C394.789 549.253 396.206 549.629 397.474 550.381C398.763 551.133 399.772 552.196 400.503 553.571C401.233 554.924 401.598 556.503 401.598 558.308C401.598 560.091 401.233 561.68 400.503 563.077C399.772 564.473 398.763 565.558 397.474 566.331C396.206 567.105 394.789 567.491 393.22 567.491C391.717 567.491 390.385 567.158 389.225 566.492C388.086 565.805 387.216 564.956 386.615 563.947V575.579H383.682V549.543H386.615V552.797ZM398.602 558.308C398.602 556.976 398.333 555.816 397.796 554.828C397.259 553.839 396.529 553.087 395.605 552.572C394.703 552.056 393.704 551.799 392.608 551.799C391.534 551.799 390.535 552.067 389.611 552.604C388.709 553.12 387.979 553.882 387.42 554.892C386.883 555.88 386.615 557.029 386.615 558.34C386.615 559.672 386.883 560.842 387.42 561.852C387.979 562.84 388.709 563.603 389.611 564.14C390.535 564.656 391.534 564.913 392.608 564.913C393.704 564.913 394.703 564.656 395.605 564.14C396.529 563.603 397.259 562.84 397.796 561.852C398.333 560.842 398.602 559.661 398.602 558.308ZM408.39 552.411C408.906 551.401 409.636 550.617 410.582 550.059C411.548 549.5 412.719 549.221 414.094 549.221V552.25H413.321C410.034 552.25 408.39 554.033 408.39 557.599V567.201H405.458V549.543H408.39V552.411ZM425.18 567.491C423.526 567.491 422.022 567.115 420.669 566.363C419.337 565.612 418.284 564.548 417.511 563.173C416.759 561.777 416.383 560.166 416.383 558.34C416.383 556.535 416.77 554.946 417.543 553.571C418.338 552.174 419.412 551.111 420.766 550.381C422.119 549.629 423.633 549.253 425.309 549.253C426.985 549.253 428.499 549.629 429.853 550.381C431.206 551.111 432.269 552.164 433.043 553.539C433.837 554.913 434.235 556.514 434.235 558.34C434.235 560.166 433.827 561.777 433.01 563.173C432.216 564.548 431.131 565.612 429.756 566.363C428.381 567.115 426.856 567.491 425.18 567.491ZM425.18 564.913C426.233 564.913 427.221 564.666 428.145 564.172C429.068 563.678 429.81 562.937 430.368 561.949C430.948 560.961 431.238 559.758 431.238 558.34C431.238 556.922 430.959 555.719 430.4 554.731C429.842 553.743 429.111 553.012 428.209 552.54C427.307 552.046 426.329 551.799 425.277 551.799C424.203 551.799 423.215 552.046 422.312 552.54C421.432 553.012 420.723 553.743 420.186 554.731C419.649 555.719 419.38 556.922 419.38 558.34C419.38 559.779 419.638 560.993 420.153 561.981C420.69 562.969 421.399 563.71 422.28 564.204C423.161 564.677 424.128 564.913 425.18 564.913ZM436.995 558.308C436.995 556.503 437.36 554.924 438.09 553.571C438.821 552.196 439.82 551.133 441.087 550.381C442.376 549.629 443.815 549.253 445.405 549.253C446.78 549.253 448.058 549.575 449.239 550.22C450.421 550.843 451.323 551.67 451.946 552.701V543.356H454.911V567.201H451.946V563.882C451.366 564.935 450.507 565.805 449.368 566.492C448.23 567.158 446.898 567.491 445.373 567.491C443.804 567.491 442.376 567.105 441.087 566.331C439.82 565.558 438.821 564.473 438.09 563.077C437.36 561.68 436.995 560.091 436.995 558.308ZM451.946 558.34C451.946 557.008 451.678 555.848 451.141 554.86C450.604 553.872 449.873 553.12 448.949 552.604C448.047 552.067 447.048 551.799 445.953 551.799C444.857 551.799 443.858 552.056 442.956 552.572C442.054 553.087 441.334 553.839 440.797 554.828C440.26 555.816 439.991 556.976 439.991 558.308C439.991 559.661 440.26 560.842 440.797 561.852C441.334 562.84 442.054 563.603 442.956 564.14C443.858 564.656 444.857 564.913 445.953 564.913C447.048 564.913 448.047 564.656 448.949 564.14C449.873 563.603 450.604 562.84 451.141 561.852C451.678 560.842 451.946 559.672 451.946 558.34ZM475.526 549.543V567.201H472.594V564.591C472.036 565.493 471.251 566.202 470.242 566.718C469.254 567.212 468.158 567.459 466.955 567.459C465.58 567.459 464.345 567.18 463.249 566.621C462.154 566.041 461.284 565.182 460.639 564.043C460.016 562.905 459.705 561.519 459.705 559.887V549.543H462.605V559.5C462.605 561.24 463.045 562.583 463.926 563.528C464.807 564.451 466.01 564.913 467.535 564.913C469.103 564.913 470.338 564.43 471.241 563.463C472.143 562.497 472.594 561.09 472.594 559.242V549.543H475.526ZM479.382 558.34C479.382 556.514 479.747 554.924 480.477 553.571C481.208 552.196 482.217 551.133 483.506 550.381C484.817 549.629 486.31 549.253 487.985 549.253C490.155 549.253 491.938 549.779 493.334 550.832C494.752 551.884 495.687 553.345 496.138 555.214H492.98C492.679 554.14 492.088 553.292 491.208 552.669C490.348 552.046 489.274 551.734 487.985 551.734C486.31 551.734 484.956 552.314 483.925 553.474C482.894 554.613 482.379 556.235 482.379 558.34C482.379 560.467 482.894 562.11 483.925 563.27C484.956 564.43 486.31 565.01 487.985 565.01C489.274 565.01 490.348 564.709 491.208 564.108C492.067 563.506 492.658 562.647 492.98 561.53H496.138C495.665 563.334 494.72 564.784 493.302 565.88C491.884 566.954 490.112 567.491 487.985 567.491C486.31 567.491 484.817 567.115 483.506 566.363C482.217 565.612 481.208 564.548 480.477 563.173C479.747 561.798 479.382 560.187 479.382 558.34ZM503.627 551.96V562.368C503.627 563.227 503.81 563.839 504.175 564.204C504.54 564.548 505.174 564.72 506.076 564.72H508.235V567.201H505.593C503.96 567.201 502.736 566.825 501.919 566.073C501.103 565.321 500.695 564.086 500.695 562.368V551.96H498.407V549.543H500.695V545.096H503.627V549.543H508.235V551.96H503.627ZM541.614 549.221C542.988 549.221 544.213 549.511 545.287 550.091C546.361 550.649 547.21 551.498 547.833 552.636C548.456 553.775 548.767 555.16 548.767 556.793V567.201H545.867V557.212C545.867 555.451 545.427 554.108 544.546 553.184C543.687 552.239 542.516 551.766 541.034 551.766C539.508 551.766 538.295 552.26 537.392 553.249C536.49 554.215 536.039 555.622 536.039 557.47V567.201H533.139V557.212C533.139 555.451 532.699 554.108 531.818 553.184C530.959 552.239 529.788 551.766 528.306 551.766C526.78 551.766 525.567 552.26 524.664 553.249C523.762 554.215 523.311 555.622 523.311 557.47V567.201H520.379V549.543H523.311V552.089C523.891 551.165 524.664 550.456 525.631 549.962C526.619 549.468 527.704 549.221 528.886 549.221C530.368 549.221 531.678 549.554 532.817 550.22C533.955 550.886 534.804 551.863 535.362 553.152C535.856 551.906 536.673 550.939 537.811 550.252C538.95 549.564 540.217 549.221 541.614 549.221ZM561.278 567.491C559.624 567.491 558.121 567.115 556.767 566.363C555.435 565.612 554.383 564.548 553.609 563.173C552.858 561.777 552.482 560.166 552.482 558.34C552.482 556.535 552.868 554.946 553.642 553.571C554.436 552.174 555.511 551.111 556.864 550.381C558.217 549.629 559.732 549.253 561.407 549.253C563.083 549.253 564.597 549.629 565.951 550.381C567.304 551.111 568.368 552.164 569.141 553.539C569.936 554.913 570.333 556.514 570.333 558.34C570.333 560.166 569.925 561.777 569.109 563.173C568.314 564.548 567.229 565.612 565.854 566.363C564.479 567.115 562.954 567.491 561.278 567.491ZM561.278 564.913C562.331 564.913 563.319 564.666 564.243 564.172C565.167 563.678 565.908 562.937 566.466 561.949C567.046 560.961 567.336 559.758 567.336 558.34C567.336 556.922 567.057 555.719 566.499 554.731C565.94 553.743 565.21 553.012 564.307 552.54C563.405 552.046 562.428 551.799 561.375 551.799C560.301 551.799 559.313 552.046 558.411 552.54C557.53 553.012 556.821 553.743 556.284 554.731C555.747 555.719 555.478 556.922 555.478 558.34C555.478 559.779 555.736 560.993 556.252 561.981C556.789 562.969 557.498 563.71 558.378 564.204C559.259 564.677 560.226 564.913 561.278 564.913ZM573.093 558.308C573.093 556.503 573.458 554.924 574.189 553.571C574.919 552.196 575.918 551.133 577.185 550.381C578.474 549.629 579.914 549.253 581.503 549.253C582.878 549.253 584.156 549.575 585.338 550.22C586.519 550.843 587.422 551.67 588.045 552.701V543.356H591.009V567.201H588.045V563.882C587.464 564.935 586.605 565.805 585.467 566.492C584.328 567.158 582.996 567.491 581.471 567.491C579.903 567.491 578.474 567.105 577.185 566.331C575.918 565.558 574.919 564.473 574.189 563.077C573.458 561.68 573.093 560.091 573.093 558.308ZM588.045 558.34C588.045 557.008 587.776 555.848 587.239 554.86C586.702 553.872 585.971 553.12 585.048 552.604C584.146 552.067 583.147 551.799 582.051 551.799C580.955 551.799 579.957 552.056 579.054 552.572C578.152 553.087 577.432 553.839 576.895 554.828C576.358 555.816 576.09 556.976 576.09 558.308C576.09 559.661 576.358 560.842 576.895 561.852C577.432 562.84 578.152 563.603 579.054 564.14C579.957 564.656 580.955 564.913 582.051 564.913C583.147 564.913 584.146 564.656 585.048 564.14C585.971 563.603 586.702 562.84 587.239 561.852C587.776 560.842 588.045 559.672 588.045 558.34ZM612.076 557.695C612.076 558.254 612.044 558.845 611.979 559.468H597.865C597.973 561.208 598.564 562.572 599.638 563.56C600.733 564.527 602.054 565.01 603.601 565.01C604.869 565.01 605.921 564.72 606.759 564.14C607.618 563.538 608.22 562.744 608.564 561.755H611.721C611.249 563.453 610.304 564.838 608.886 565.912C607.468 566.965 605.706 567.491 603.601 567.491C601.926 567.491 600.422 567.115 599.09 566.363C597.78 565.612 596.748 564.548 595.997 563.173C595.245 561.777 594.869 560.166 594.869 558.34C594.869 556.514 595.234 554.913 595.964 553.539C596.695 552.164 597.715 551.111 599.026 550.381C600.357 549.629 601.883 549.253 603.601 549.253C605.277 549.253 606.759 549.618 608.048 550.349C609.337 551.079 610.325 552.089 611.012 553.377C611.721 554.645 612.076 556.084 612.076 557.695ZM609.047 557.083C609.047 555.966 608.8 555.01 608.306 554.215C607.812 553.399 607.135 552.787 606.276 552.379C605.438 551.949 604.503 551.734 603.472 551.734C601.99 551.734 600.723 552.207 599.67 553.152C598.639 554.097 598.048 555.408 597.898 557.083H609.047ZM618.879 543.356V567.201H615.946V543.356H618.879ZM630.128 567.491C628.774 567.491 627.56 567.266 626.486 566.814C625.412 566.342 624.564 565.697 623.941 564.881C623.318 564.043 622.974 563.087 622.91 562.013H625.939C626.024 562.894 626.433 563.614 627.163 564.172C627.915 564.731 628.892 565.01 630.095 565.01C631.212 565.01 632.093 564.763 632.738 564.269C633.382 563.775 633.704 563.152 633.704 562.4C633.704 561.627 633.361 561.057 632.673 560.692C631.986 560.305 630.922 559.93 629.483 559.564C628.173 559.221 627.099 558.877 626.261 558.533C625.444 558.168 624.736 557.642 624.134 556.954C623.554 556.245 623.264 555.322 623.264 554.183C623.264 553.281 623.533 552.454 624.07 551.702C624.607 550.95 625.369 550.359 626.357 549.93C627.346 549.478 628.473 549.253 629.741 549.253C631.696 549.253 633.275 549.747 634.478 550.735C635.681 551.723 636.325 553.077 636.411 554.795H633.479C633.414 553.872 633.038 553.13 632.351 552.572C631.685 552.013 630.783 551.734 629.644 551.734C628.592 551.734 627.754 551.96 627.131 552.411C626.508 552.862 626.196 553.453 626.196 554.183C626.196 554.763 626.379 555.246 626.744 555.633C627.131 555.998 627.603 556.299 628.162 556.535C628.742 556.75 629.537 556.997 630.546 557.276C631.814 557.62 632.845 557.964 633.64 558.308C634.435 558.63 635.111 559.124 635.67 559.79C636.25 560.456 636.551 561.326 636.572 562.4C636.572 563.367 636.304 564.237 635.767 565.01C635.23 565.783 634.467 566.396 633.479 566.847C632.512 567.276 631.395 567.491 630.128 567.491Z" fill="white"/>
<path d="M163.187 607.796C163.55 608.182 163.745 608.696 163.729 609.225C163.713 609.755 163.487 610.256 163.102 610.62L141.98 630.527C141.549 630.933 140.977 631.154 140.385 631.143C139.794 631.132 139.23 630.89 138.815 630.469L131.677 623.224C131.488 623.038 131.337 622.816 131.235 622.572C131.132 622.328 131.079 622.065 131.079 621.8C131.079 621.535 131.131 621.273 131.234 621.028C131.336 620.784 131.486 620.562 131.674 620.376C131.863 620.19 132.087 620.043 132.333 619.945C132.579 619.846 132.842 619.797 133.107 619.801C133.372 619.805 133.633 619.862 133.876 619.968C134.119 620.074 134.338 620.227 134.521 620.419L140.472 626.457L160.364 607.711C160.749 607.348 161.264 607.153 161.793 607.169C162.322 607.185 162.824 607.41 163.187 607.796Z" fill="white"/>
<path d="M194.724 618.573C194.724 616.382 195.218 614.417 196.206 612.677C197.194 610.915 198.537 609.54 200.234 608.552C201.953 607.564 203.854 607.07 205.938 607.07C208.387 607.07 210.524 607.661 212.35 608.842C214.176 610.024 215.508 611.699 216.346 613.869H212.833C212.21 612.516 211.308 611.474 210.127 610.743C208.967 610.013 207.57 609.648 205.938 609.648C204.369 609.648 202.962 610.013 201.716 610.743C200.47 611.474 199.493 612.516 198.784 613.869C198.075 615.201 197.721 616.769 197.721 618.573C197.721 620.357 198.075 621.925 198.784 623.278C199.493 624.61 200.47 625.641 201.716 626.371C202.962 627.102 204.369 627.467 205.938 627.467C207.57 627.467 208.967 627.113 210.127 626.404C211.308 625.673 212.21 624.631 212.833 623.278H216.346C215.508 625.426 214.176 627.091 212.35 628.273C210.524 629.433 208.387 630.013 205.938 630.013C203.854 630.013 201.953 629.529 200.234 628.563C198.537 627.574 197.194 626.21 196.206 624.47C195.218 622.73 194.724 620.765 194.724 618.573ZM228.412 630.109C226.758 630.109 225.254 629.733 223.901 628.982C222.569 628.23 221.516 627.166 220.743 625.791C219.991 624.395 219.615 622.784 219.615 620.958C219.615 619.154 220.002 617.564 220.775 616.189C221.57 614.793 222.644 613.729 223.997 612.999C225.351 612.247 226.865 611.871 228.541 611.871C230.216 611.871 231.731 612.247 233.084 612.999C234.438 613.729 235.501 614.782 236.274 616.157C237.069 617.532 237.467 619.132 237.467 620.958C237.467 622.784 237.058 624.395 236.242 625.791C235.447 627.166 234.362 628.23 232.988 628.982C231.613 629.733 230.088 630.109 228.412 630.109ZM228.412 627.531C229.465 627.531 230.453 627.284 231.376 626.79C232.3 626.296 233.041 625.555 233.6 624.567C234.18 623.579 234.47 622.376 234.47 620.958C234.47 619.54 234.191 618.337 233.632 617.349C233.074 616.361 232.343 615.63 231.441 615.158C230.539 614.664 229.561 614.417 228.509 614.417C227.434 614.417 226.446 614.664 225.544 615.158C224.663 615.63 223.954 616.361 223.417 617.349C222.88 618.337 222.612 619.54 222.612 620.958C222.612 622.397 222.87 623.611 223.385 624.599C223.922 625.587 224.631 626.329 225.512 626.823C226.393 627.295 227.359 627.531 228.412 627.531ZM249.926 611.839C252.074 611.839 253.814 612.494 255.146 613.804C256.478 615.093 257.144 616.962 257.144 619.411V629.819H254.243V619.83C254.243 618.069 253.803 616.726 252.922 615.802C252.042 614.857 250.839 614.384 249.313 614.384C247.767 614.384 246.531 614.868 245.608 615.835C244.705 616.801 244.254 618.208 244.254 620.056V629.819H241.322V612.161H244.254V614.675C244.834 613.772 245.618 613.074 246.607 612.58C247.616 612.086 248.723 611.839 249.926 611.839ZM269.119 614.578H265.414V629.819H262.481V614.578H260.193V612.161H262.481V610.904C262.481 608.928 262.986 607.489 263.996 606.587C265.027 605.663 266.67 605.201 268.926 605.201V607.65C267.637 607.65 266.724 607.908 266.187 608.423C265.671 608.917 265.414 609.744 265.414 610.904V612.161H269.119V614.578ZM274.053 609.293C273.494 609.293 273.021 609.1 272.635 608.713C272.248 608.327 272.055 607.854 272.055 607.295C272.055 606.737 272.248 606.264 272.635 605.878C273.021 605.491 273.494 605.298 274.053 605.298C274.59 605.298 275.041 605.491 275.406 605.878C275.793 606.264 275.986 606.737 275.986 607.295C275.986 607.854 275.793 608.327 275.406 608.713C275.041 609.1 274.59 609.293 274.053 609.293ZM275.47 612.161V629.819H272.538V612.161H275.47ZM287.75 611.871C289.276 611.871 290.608 612.204 291.746 612.87C292.906 613.536 293.765 614.374 294.324 615.383V612.161H297.288V630.206C297.288 631.817 296.945 633.246 296.257 634.492C295.57 635.759 294.582 636.747 293.293 637.456C292.025 638.165 290.543 638.52 288.846 638.52C286.526 638.52 284.593 637.972 283.046 636.876C281.499 635.781 280.586 634.288 280.307 632.397H283.207C283.529 633.471 284.195 634.331 285.205 634.975C286.214 635.641 287.428 635.974 288.846 635.974C290.457 635.974 291.768 635.469 292.777 634.459C293.808 633.45 294.324 632.032 294.324 630.206V626.5C293.744 627.531 292.885 628.391 291.746 629.078C290.608 629.766 289.276 630.109 287.75 630.109C286.182 630.109 284.754 629.723 283.465 628.949C282.197 628.176 281.198 627.091 280.468 625.695C279.738 624.298 279.372 622.709 279.372 620.926C279.372 619.121 279.738 617.542 280.468 616.189C281.198 614.814 282.197 613.751 283.465 612.999C284.754 612.247 286.182 611.871 287.75 611.871ZM294.324 620.958C294.324 619.626 294.055 618.466 293.518 617.478C292.981 616.49 292.251 615.738 291.327 615.222C290.425 614.685 289.426 614.417 288.33 614.417C287.235 614.417 286.236 614.675 285.334 615.19C284.431 615.706 283.712 616.458 283.175 617.446C282.638 618.434 282.369 619.594 282.369 620.926C282.369 622.279 282.638 623.461 283.175 624.47C283.712 625.458 284.431 626.221 285.334 626.758C286.236 627.274 287.235 627.531 288.33 627.531C289.426 627.531 290.425 627.274 291.327 626.758C292.251 626.221 292.981 625.458 293.518 624.47C294.055 623.461 294.324 622.29 294.324 620.958ZM317.904 612.161V629.819H314.972V627.209C314.413 628.112 313.629 628.82 312.62 629.336C311.631 629.83 310.536 630.077 309.333 630.077C307.958 630.077 306.723 629.798 305.627 629.239C304.532 628.659 303.662 627.8 303.017 626.661C302.394 625.523 302.083 624.137 302.083 622.505V612.161H304.983V622.118C304.983 623.858 305.423 625.201 306.304 626.146C307.185 627.07 308.388 627.531 309.913 627.531C311.481 627.531 312.716 627.048 313.618 626.081C314.521 625.115 314.972 623.708 314.972 621.86V612.161H317.904ZM325.787 615.029C326.303 614.019 327.033 613.235 327.979 612.677C328.945 612.118 330.116 611.839 331.491 611.839V614.868H330.718C327.431 614.868 325.787 616.651 325.787 620.217V629.819H322.855V612.161H325.787V615.029ZM333.78 620.926C333.78 619.121 334.145 617.542 334.876 616.189C335.606 614.814 336.605 613.751 337.873 612.999C339.162 612.247 340.59 611.871 342.158 611.871C343.705 611.871 345.048 612.204 346.186 612.87C347.325 613.536 348.173 614.374 348.732 615.383V612.161H351.696V629.819H348.732V626.533C348.152 627.564 347.282 628.423 346.122 629.11C344.983 629.776 343.651 630.109 342.126 630.109C340.558 630.109 339.14 629.723 337.873 628.949C336.605 628.176 335.606 627.091 334.876 625.695C334.145 624.298 333.78 622.709 333.78 620.926ZM348.732 620.958C348.732 619.626 348.463 618.466 347.926 617.478C347.389 616.49 346.659 615.738 345.735 615.222C344.833 614.685 343.834 614.417 342.738 614.417C341.643 614.417 340.644 614.675 339.742 615.19C338.839 615.706 338.12 616.458 337.583 617.446C337.046 618.434 336.777 619.594 336.777 620.926C336.777 622.279 337.046 623.461 337.583 624.47C338.12 625.458 338.839 626.221 339.742 626.758C340.644 627.274 341.643 627.531 342.738 627.531C343.834 627.531 344.833 627.274 345.735 626.758C346.659 626.221 347.389 625.458 347.926 624.47C348.463 623.461 348.732 622.29 348.732 620.958ZM359.584 615.448C360.185 614.395 361.066 613.536 362.226 612.87C363.386 612.204 364.707 611.871 366.19 611.871C367.779 611.871 369.208 612.247 370.475 612.999C371.743 613.751 372.742 614.814 373.472 616.189C374.202 617.542 374.568 619.121 374.568 620.926C374.568 622.709 374.202 624.298 373.472 625.695C372.742 627.091 371.732 628.176 370.443 628.949C369.176 629.723 367.758 630.109 366.19 630.109C364.664 630.109 363.322 629.776 362.162 629.11C361.023 628.444 360.164 627.596 359.584 626.565V629.819H356.652V605.974H359.584V615.448ZM371.571 620.926C371.571 619.594 371.302 618.434 370.765 617.446C370.228 616.458 369.498 615.706 368.574 615.19C367.672 614.675 366.673 614.417 365.577 614.417C364.503 614.417 363.504 614.685 362.581 615.222C361.678 615.738 360.948 616.5 360.389 617.51C359.852 618.498 359.584 619.648 359.584 620.958C359.584 622.29 359.852 623.461 360.389 624.47C360.948 625.458 361.678 626.221 362.581 626.758C363.504 627.274 364.503 627.531 365.577 627.531C366.673 627.531 367.672 627.274 368.574 626.758C369.498 626.221 370.228 625.458 370.765 624.47C371.302 623.461 371.571 622.279 371.571 620.926ZM381.36 605.974V629.819H378.427V605.974H381.36ZM402.469 620.314C402.469 620.872 402.436 621.463 402.372 622.086H388.258C388.366 623.826 388.957 625.19 390.031 626.178C391.126 627.145 392.447 627.628 393.994 627.628C395.261 627.628 396.314 627.338 397.152 626.758C398.011 626.157 398.613 625.362 398.956 624.374H402.114C401.642 626.071 400.696 627.456 399.279 628.53C397.861 629.583 396.099 630.109 393.994 630.109C392.318 630.109 390.815 629.733 389.483 628.982C388.172 628.23 387.141 627.166 386.389 625.791C385.638 624.395 385.262 622.784 385.262 620.958C385.262 619.132 385.627 617.532 386.357 616.157C387.088 614.782 388.108 613.729 389.418 612.999C390.75 612.247 392.275 611.871 393.994 611.871C395.67 611.871 397.152 612.236 398.441 612.967C399.73 613.697 400.718 614.707 401.405 615.996C402.114 617.263 402.469 618.702 402.469 620.314ZM399.44 619.701C399.44 618.584 399.193 617.628 398.699 616.833C398.205 616.017 397.528 615.405 396.669 614.997C395.831 614.567 394.896 614.352 393.865 614.352C392.383 614.352 391.115 614.825 390.063 615.77C389.032 616.715 388.441 618.026 388.291 619.701H399.44ZM436.165 611.839C437.54 611.839 438.764 612.129 439.838 612.709C440.912 613.267 441.761 614.116 442.384 615.255C443.007 616.393 443.318 617.779 443.318 619.411V629.819H440.418V619.83C440.418 618.069 439.978 616.726 439.097 615.802C438.238 614.857 437.067 614.384 435.585 614.384C434.06 614.384 432.846 614.879 431.944 615.867C431.041 616.833 430.59 618.241 430.59 620.088V629.819H427.69V619.83C427.69 618.069 427.25 616.726 426.369 615.802C425.51 614.857 424.339 614.384 422.857 614.384C421.332 614.384 420.118 614.879 419.216 615.867C418.313 616.833 417.862 618.241 417.862 620.088V629.819H414.93V612.161H417.862V614.707C418.442 613.783 419.216 613.074 420.182 612.58C421.17 612.086 422.255 611.839 423.437 611.839C424.919 611.839 426.23 612.172 427.368 612.838C428.507 613.504 429.355 614.481 429.914 615.77C430.408 614.524 431.224 613.557 432.363 612.87C433.501 612.183 434.769 611.839 436.165 611.839ZM447.033 620.926C447.033 619.121 447.398 617.542 448.129 616.189C448.859 614.814 449.858 613.751 451.125 612.999C452.414 612.247 453.843 611.871 455.411 611.871C456.958 611.871 458.3 612.204 459.439 612.87C460.577 613.536 461.426 614.374 461.984 615.383V612.161H464.949V629.819H461.984V626.533C461.404 627.564 460.534 628.423 459.374 629.11C458.236 629.776 456.904 630.109 455.379 630.109C453.811 630.109 452.393 629.723 451.125 628.949C449.858 628.176 448.859 627.091 448.129 625.695C447.398 624.298 447.033 622.709 447.033 620.926ZM461.984 620.958C461.984 619.626 461.716 618.466 461.179 617.478C460.642 616.49 459.911 615.738 458.988 615.222C458.085 614.685 457.087 614.417 455.991 614.417C454.895 614.417 453.896 614.675 452.994 615.19C452.092 615.706 451.372 616.458 450.835 617.446C450.298 618.434 450.03 619.594 450.03 620.926C450.03 622.279 450.298 623.461 450.835 624.47C451.372 625.458 452.092 626.221 452.994 626.758C453.896 627.274 454.895 627.531 455.991 627.531C457.087 627.531 458.085 627.274 458.988 626.758C459.911 626.221 460.642 625.458 461.179 624.47C461.716 623.461 461.984 622.29 461.984 620.958ZM472.837 615.416C473.417 614.406 474.276 613.568 475.414 612.902C476.574 612.215 477.917 611.871 479.442 611.871C481.01 611.871 482.428 612.247 483.696 612.999C484.985 613.751 485.994 614.814 486.725 616.189C487.455 617.542 487.82 619.121 487.82 620.926C487.82 622.709 487.455 624.298 486.725 625.695C485.994 627.091 484.985 628.176 483.696 628.949C482.428 629.723 481.01 630.109 479.442 630.109C477.939 630.109 476.607 629.776 475.447 629.11C474.308 628.423 473.438 627.574 472.837 626.565V638.197H469.904V612.161H472.837V615.416ZM484.824 620.926C484.824 619.594 484.555 618.434 484.018 617.446C483.481 616.458 482.75 615.706 481.827 615.19C480.925 614.675 479.926 614.417 478.83 614.417C477.756 614.417 476.757 614.685 475.833 615.222C474.931 615.738 474.201 616.5 473.642 617.51C473.105 618.498 472.837 619.648 472.837 620.958C472.837 622.29 473.105 623.461 473.642 624.47C474.201 625.458 474.931 626.221 475.833 626.758C476.757 627.274 477.756 627.531 478.83 627.531C479.926 627.531 480.925 627.274 481.827 626.758C482.75 626.221 483.481 625.458 484.018 624.47C484.555 623.461 484.824 622.279 484.824 620.926ZM494.612 615.416C495.192 614.406 496.052 613.568 497.19 612.902C498.35 612.215 499.693 611.871 501.218 611.871C502.786 611.871 504.204 612.247 505.471 612.999C506.76 613.751 507.77 614.814 508.5 616.189C509.231 617.542 509.596 619.121 509.596 620.926C509.596 622.709 509.231 624.298 508.5 625.695C507.77 627.091 506.76 628.176 505.471 628.949C504.204 629.723 502.786 630.109 501.218 630.109C499.714 630.109 498.382 629.776 497.222 629.11C496.084 628.423 495.214 627.574 494.612 626.565V638.197H491.68V612.161H494.612V615.416ZM506.599 620.926C506.599 619.594 506.331 618.434 505.794 617.446C505.257 616.458 504.526 615.706 503.602 615.19C502.7 614.675 501.701 614.417 500.606 614.417C499.532 614.417 498.533 614.685 497.609 615.222C496.707 615.738 495.976 616.5 495.418 617.51C494.881 618.498 494.612 619.648 494.612 620.958C494.612 622.29 494.881 623.461 495.418 624.47C495.976 625.458 496.707 626.221 497.609 626.758C498.533 627.274 499.532 627.531 500.606 627.531C501.701 627.531 502.7 627.274 503.602 626.758C504.526 626.221 505.257 625.458 505.794 624.47C506.331 623.461 506.599 622.279 506.599 620.926ZM514.97 609.293C514.412 609.293 513.939 609.1 513.552 608.713C513.166 608.327 512.972 607.854 512.972 607.295C512.972 606.737 513.166 606.264 513.552 605.878C513.939 605.491 514.412 605.298 514.97 605.298C515.507 605.298 515.958 605.491 516.324 605.878C516.71 606.264 516.904 606.737 516.904 607.295C516.904 607.854 516.71 608.327 516.324 608.713C515.958 609.1 515.507 609.293 514.97 609.293ZM516.388 612.161V629.819H513.456V612.161H516.388ZM529.989 611.839C532.137 611.839 533.877 612.494 535.209 613.804C536.541 615.093 537.207 616.962 537.207 619.411V629.819H534.307V619.83C534.307 618.069 533.867 616.726 532.986 615.802C532.105 614.857 530.902 614.384 529.377 614.384C527.83 614.384 526.595 614.868 525.671 615.835C524.769 616.801 524.318 618.208 524.318 620.056V629.819H521.386V612.161H524.318V614.675C524.898 613.772 525.682 613.074 526.67 612.58C527.68 612.086 528.786 611.839 529.989 611.839ZM549.279 611.871C550.805 611.871 552.137 612.204 553.275 612.87C554.435 613.536 555.294 614.374 555.853 615.383V612.161H558.817V630.206C558.817 631.817 558.474 633.246 557.786 634.492C557.099 635.759 556.111 636.747 554.822 637.456C553.554 638.165 552.072 638.52 550.375 638.52C548.055 638.52 546.122 637.972 544.575 636.876C543.028 635.781 542.115 634.288 541.836 632.397H544.736C545.058 633.471 545.724 634.331 546.734 634.975C547.743 635.641 548.957 635.974 550.375 635.974C551.986 635.974 553.297 635.469 554.306 634.459C555.337 633.45 555.853 632.032 555.853 630.206V626.5C555.273 627.531 554.414 628.391 553.275 629.078C552.137 629.766 550.805 630.109 549.279 630.109C547.711 630.109 546.283 629.723 544.994 628.949C543.726 628.176 542.727 627.091 541.997 625.695C541.267 624.298 540.901 622.709 540.901 620.926C540.901 619.121 541.267 617.542 541.997 616.189C542.727 614.814 543.726 613.751 544.994 612.999C546.283 612.247 547.711 611.871 549.279 611.871ZM555.853 620.958C555.853 619.626 555.584 618.466 555.047 617.478C554.51 616.49 553.78 615.738 552.856 615.222C551.954 614.685 550.955 614.417 549.859 614.417C548.764 614.417 547.765 614.675 546.863 615.19C545.96 615.706 545.241 616.458 544.704 617.446C544.167 618.434 543.898 619.594 543.898 620.926C543.898 622.279 544.167 623.461 544.704 624.47C545.241 625.458 545.96 626.221 546.863 626.758C547.765 627.274 548.764 627.531 549.859 627.531C550.955 627.531 551.954 627.274 552.856 626.758C553.78 626.221 554.51 625.458 555.047 624.47C555.584 623.461 555.853 622.29 555.853 620.958ZM570.024 630.109C568.671 630.109 567.457 629.884 566.383 629.433C565.309 628.96 564.46 628.316 563.837 627.499C563.214 626.661 562.87 625.706 562.806 624.631H565.835C565.921 625.512 566.329 626.232 567.059 626.79C567.811 627.349 568.789 627.628 569.992 627.628C571.109 627.628 571.99 627.381 572.634 626.887C573.279 626.393 573.601 625.77 573.601 625.018C573.601 624.245 573.257 623.675 572.57 623.31C571.882 622.924 570.819 622.548 569.38 622.182C568.069 621.839 566.995 621.495 566.157 621.151C565.341 620.786 564.632 620.26 564.031 619.572C563.451 618.864 563.161 617.94 563.161 616.801C563.161 615.899 563.429 615.072 563.966 614.32C564.503 613.568 565.266 612.977 566.254 612.548C567.242 612.097 568.37 611.871 569.637 611.871C571.592 611.871 573.171 612.365 574.374 613.353C575.577 614.342 576.222 615.695 576.308 617.413H573.375C573.311 616.49 572.935 615.749 572.247 615.19C571.581 614.632 570.679 614.352 569.541 614.352C568.488 614.352 567.65 614.578 567.027 615.029C566.404 615.48 566.093 616.071 566.093 616.801C566.093 617.381 566.275 617.865 566.641 618.251C567.027 618.616 567.5 618.917 568.058 619.154C568.638 619.368 569.433 619.615 570.443 619.895C571.71 620.238 572.741 620.582 573.536 620.926C574.331 621.248 575.008 621.742 575.566 622.408C576.146 623.074 576.447 623.944 576.469 625.018C576.469 625.985 576.2 626.855 575.663 627.628C575.126 628.402 574.363 629.014 573.375 629.465C572.409 629.895 571.291 630.109 570.024 630.109Z" fill="white"/>
<path d="M1277.14 754.963L1263.13 760.57L1228.63 746.77L1237.02 743.408C1240.86 741.872 1245.14 741.872 1248.98 743.408L1275.46 754.001C1276.06 754.24 1276.63 754.567 1277.14 754.963ZM1243 768.616L1256.93 763.04L1222.43 749.24L1210.54 754.001C1209.94 754.24 1209.37 754.562 1208.86 754.958L1243 768.616ZM1206.2 760.409C1206.2 759.903 1206.26 759.402 1206.36 758.919L1240.7 772.654V788.143C1239.18 791.453 1238.4 795.053 1238.4 798.695C1238.4 802.467 1239.23 806.041 1240.7 809.252V813.567C1239.44 813.386 1238.2 813.056 1237.02 812.582L1210.54 801.989C1209.26 801.476 1208.16 800.592 1207.39 799.45C1206.61 798.308 1206.2 796.96 1206.2 795.581V760.409ZM1279.8 760.409V779.177C1275.27 775.433 1269.58 773.389 1263.7 773.4C1260.25 773.395 1256.84 774.096 1253.68 775.46C1250.51 776.824 1247.66 778.822 1245.3 781.33V772.654L1279.64 758.919C1279.74 759.402 1279.8 759.903 1279.8 760.409ZM1263.7 819.4C1269.19 819.4 1274.46 817.219 1278.34 813.337C1282.22 809.455 1284.4 804.19 1284.4 798.7C1284.4 793.21 1282.22 787.945 1278.34 784.063C1274.46 780.181 1269.19 778 1263.7 778C1258.21 778 1252.95 780.181 1249.06 784.063C1245.18 787.945 1243 793.21 1243 798.7C1243 804.19 1245.18 809.455 1249.06 813.337C1252.95 817.219 1258.21 819.4 1263.7 819.4ZM1259.1 802.343L1271.27 790.171C1271.7 789.739 1272.29 789.496 1272.9 789.496C1273.51 789.496 1274.09 789.738 1274.53 790.169C1274.96 790.6 1275.2 791.185 1275.2 791.796C1275.2 792.406 1274.96 792.992 1274.53 793.423L1260.73 807.223C1260.51 807.438 1260.26 807.608 1259.98 807.724C1259.7 807.839 1259.4 807.899 1259.1 807.899C1258.8 807.899 1258.5 807.839 1258.22 807.724C1257.94 807.608 1257.69 807.438 1257.47 807.223L1252.87 802.623C1252.44 802.192 1252.2 801.606 1252.2 800.996C1252.2 800.385 1252.44 799.8 1252.87 799.369C1253.31 798.938 1253.89 798.696 1254.5 798.696C1255.11 798.696 1255.7 798.939 1256.13 799.371L1259.1 802.343Z" fill="white"/>
</g>
<defs>
<clipPath id="clip0_117_974">
<rect width="1330" height="888" rx="24" fill="white"/>
</clipPath>
</defs>
</svg>
